<svg xmlns="http://www.w3.org/2000/svg" xmlns:xlink="http://www.w3.org/1999/xlink" version="1.1" width="44.85pt" height="59.772pt" viewBox="0 0 44.85 59.772">
<defs>
<clipPath id="clip_0">
<path transform="matrix(.19754,0,0,-.19754,0,59.772)" d="M0 0H227.04422V302.58357H0Z"/>
</clipPath>
<clipPath id="clip_1">
<path transform="matrix(.16936,0,0,-.16936,3.372,55.289)" d="M0 0H225V300H0Z"/>
</clipPath>
</defs>
<g>
<g>
<g clip-path="url(#clip_0)">
<path transform="matrix(.19754,0,0,.19754,0,-.00035476686)" d="M31 1H196.043C212.664 1 226.043 14.379 226.043 31V271.582C226.043 288.203 212.664 301.582 196.043 301.582H31C14.379 301.582 1 288.203 1 271.582V31C1 14.379 14.379 1 31 1ZM31 1" fill="#f5f0eb"/>
<path transform="matrix(.19754,0,0,.19754,0,-.00035476686)" stroke-width="2" stroke-linecap="butt" stroke-linejoin="round" fill="none" stroke="#000000" d="M31 1H196.043C212.664 1 226.043 14.379 226.043 31V271.582C226.043 288.203 212.664 301.582 196.043 301.582H31C14.379 301.582 1 288.203 1 271.582V31C1 14.379 14.379 1 31 1ZM31 1"/>
</g>
</g>
<g clip-path="url(#clip_1)">
<path transform="matrix(.016936,0,0,-.016936,3.372,55.289)" d="M1746.8 2209.92C1371.95 2125.86 603.441 1950.2 564.73 1987.38 456.762 2066.95 342.109 2018.55 410.352 1911.33 520.078 1709.61 687.891 1523.98 768.75 1305.35 784.219 1273.63 799.691 1268.71 815.16 1268.95 1050.86 1264.57 1217.89 1321.17 1443.12 1342.11 1478.55 1345.82 1525.39 1304.1 1551.72 1316.56 1575.04 1330.31 1584.77 1379.22 1590.9 1409.88 1637.23 1595.78 1780.39 1758.59 1860.39 1941.76 1870.59 1963.63 1926.91 1967.7 1926.48 1988.87 1918.24 2067.97 1809.61 2213.44 1746.8 2209.92ZM1590.47 1964.3C1674.69 1966.52 1587.81 1781.09 1553.32 1773.32 1514.92 1767.19 1508.79 1826.72 1461.76 1827.77 1426.41 1823.75 1434.41 1799.02 1397.97 1787.23 1175.59 1739.96 1012.58 1723.16 780.551 1698.48 751.289 1697.66 678.789 1824.45 719.648 1834.73 996.211 1907.42 1461.25 1962.34 1590.47 1964.3ZM1479.77 1598.36C1506.88 1548.12 1460.55 1497.42 1427.03 1491.84 1223.05 1458.83 898.398 1402.97 873.051 1431.64 855 1452.42 818.441 1511.95 824.262 1552.62 899.488 1579.77 1447.77 1658.12 1479.77 1598.36ZM1479.77 1598.36" fill="#142896" fill-rule="evenodd"/>
<path transform="matrix(.016936,0,0,-.016936,3.372,55.289)" d="M1000.2 2935.23C876.09 2989.38 862.578 2892.58 879.262 2830.35 921.211 2682.58 976.719 2620.94 1045 2518.2 1057.19 2500.51 1070.74 2466.56 1068.67 2450.39L1049.77 931.879C1049.92 884.34 1041.48 733.98 1013.71 757.699 903.871 848.09 870.66 898.789 694.531 1134.73 619.301 1243.91 560.199 1185.51 651.559 1042.62 938.359 643.051 962.809 604.961 967.07 200.66 978.051-12.7695 1181.6 20.3516 1200.59 155.738 1223.79 301.84 1189.49 534.531 1188.12 695.309 1182.89 1309.92 1182.3 1853.48 1274.88 2447.42 1292.42 2540.08 1430.2 2616.13 1504.38 2642.77 1537.27 2654.65 1573.87 2745 1510.47 2748.52 1340.39 2767.89 1157.3 2862.27 1000.2 2935.23ZM1000.2 2935.23" fill="#142896" fill-rule="evenodd"/>
<path transform="matrix(.016936,0,0,-.016936,3.372,55.289)" d="M776.988 2248.95C584.449 2258.52 726.949 2133.48 770.199 2136.64 1009.8 2160.2 1404.77 2221.95 1649.06 2282.11 1665.98 2282.7 1647.77 2407.85 1531.95 2420.51 1496.72 2422.38 1502.77 2401.48 1461.17 2385.12 1274.49 2341.21 946.719 2237.23 776.988 2248.95ZM776.988 2248.95" fill="#142896" fill-rule="evenodd"/>
<path transform="matrix(.016936,0,0,-.016936,3.372,55.289)" d="M851.41 1440.55C716.051 1156.64 591.559 1055.59 181.988 864.059 23.5195 795.352 34.8008 691.02 226.879 762.422 748.16 981.762 857.5 1118.67 942.5 1384.53ZM851.41 1440.55" fill="#142896" fill-rule="evenodd"/>
<path transform="matrix(.016936,0,0,-.016936,3.372,55.289)" d="M1174.49 1434.96C1342.11 1223.28 1571.33 652.621 1698.44 737.379 1798.75 807.148 1927.77 815.43 1982.58 799.41 2054.34 778.949 2057.81 742.699 2097.97 719.18 2203.59 670.98 2181.48 733.949 2144.84 789.379 2049.96 947.34 1600.55 1042.93 1318.59 1466.48ZM1174.49 1434.96" fill="#142896" fill-rule="evenodd"/>
</g>
</g>
</svg>
