<svg xmlns="http://www.w3.org/2000/svg" xmlns:xlink="http://www.w3.org/1999/xlink" version="1.1" width="44.85pt" height="59.772pt" viewBox="0 0 44.85 59.772">
<defs>
<clipPath id="clip_0">
<path transform="matrix(.19754,0,0,-.19754,0,59.772)" d="M0 0H227.04422V302.58357H0Z"/>
</clipPath>
<clipPath id="clip_1">
<path transform="matrix(.16936,0,0,-.16936,3.372,55.289)" d="M0 0H225V300H0Z"/>
</clipPath>
</defs>
<g>
<g>
<g clip-path="url(#clip_0)">
<path transform="matrix(.19754,0,0,.19754,0,-.00035476686)" d="M31 1H196.043C212.664 1 226.043 14.379 226.043 31V271.582C226.043 288.203 212.664 301.582 196.043 301.582H31C14.379 301.582 1 288.203 1 271.582V31C1 14.379 14.379 1 31 1ZM31 1" fill="#f5f0eb"/>
<path transform="matrix(.19754,0,0,.19754,0,-.00035476686)" stroke-width="2" stroke-linecap="butt" stroke-linejoin="round" fill="none" stroke="#000000" d="M31 1H196.043C212.664 1 226.043 14.379 226.043 31V271.582C226.043 288.203 212.664 301.582 196.043 301.582H31C14.379 301.582 1 288.203 1 271.582V31C1 14.379 14.379 1 31 1ZM31 1"/>
</g>
</g>
<g clip-path="url(#clip_1)">
<path transform="matrix(.016936,0,0,-.016936,3.372,55.289)" d="M453.32 1298.55C1214.65 1217.73 1166.48 1416.8 1803.79 1437.89 1945.43 1458.48 1936.05 1568.83 1800.43 1558.01 1122.66 1541.21 1359.57 1295.98 467.73 1437.34 250.23 1476.13 285.738 1328.09 453.32 1298.55ZM453.32 1298.55" fill="#b93c3c" fill-rule="evenodd"/>
<path transform="matrix(.016936,0,0,-.016936,3.372,55.289)" d="M1137.81 1622.54C1147.66 1651.99 1077.81 1698.91 1038.67 1648.59 1002.42 1592.5 991.68 1557.42 957.191 1517.93 942.539 1500 940.391 1460 955.59 1448.44 1012.34 1401.95 1006.02 1412.58 1041.84 1337.89L1195.82 1351.13C1146.91 1415.55 1138.83 1409.88 1119.8 1474.3 1111.09 1544.26 1113.75 1550.62 1137.81 1622.54ZM1137.81 1622.54" fill="#b93c3c" fill-rule="evenodd"/>
<path transform="matrix(.016936,0,0,-.016936,3.372,55.289)" d="M1331.25 1907.27C1315.7 1923.52 1306.45 1929.26 1284.65 1907.27L1169.22 1790.7C1159.1 1779.45 1158.95 1762.93 1167.23 1753.44L1236.02 1687.19C1268.67 1655.31 1276.99 1632.34 1257.77 1594.69 1232.11 1522.54 1212.85 1449.41 1212.03 1409.38L1370.9 1435.51C1341.21 1509.14 1341.88 1528.2 1392.38 1597.85 1434.06 1645.31 1474.38 1656.17 1437.34 1720.98ZM1331.25 1907.27" fill="#b93c3c" fill-rule="evenodd"/>
<path transform="matrix(.016936,0,0,-.016936,3.372,55.289)" d="M1499.26 1304.61C1481.45 1304.61 1460.9 1301.95 1439.38 1299.53 1244.53 1267.73 1104.65 1197.07 781.02 1208.48 737.191 1208.24 700.039 1185.16 701.559 1151.56 704.691 1077.34 759.34 685.23 763.871 649.879 770.23 601.762 837.27 597.5 846.09 639.84 847.73 647.582 847.77 669.488 846.84 699.801 850.941 708.359 857.301 714.961 864.141 716.172L1291.52 754.379C1295.86 754.301 1299.14 750.27 1301.41 744.379 1298.12 593.672 1296.29 446.332 1299.53 394.73 1300.43 383.32 1299.88 371.332 1311.29 361.051 1338.48 338.32 1492.11 350.859 1531.84 375.66 1542.85 383.75 1546.84 387.539 1548.32 404.41 1526.13 659.34 1543.32 983.52 1560.39 1235.94 1564.84 1291.84 1538.55 1304.61 1499.26 1304.61ZM1296.91 1178.87C1339.3 1189.3 1312.07 1060.16 1297.58 1059.8L856.371 1025.2C817.93 1032.89 819.77 1123.2 845.699 1124.41 1045.51 1131.13 1113.79 1148.28 1296.91 1178.87ZM1295.94 960.23C1308.75 961.211 1311.09 867.34 1293.09 865.82L863.199 829.84C832.422 838.48 830.551 919.57 857.34 923.551ZM1295.94 960.23" fill="#b93c3c" fill-rule="evenodd"/>
<path transform="matrix(.016936,0,0,-.016936,3.372,55.289)" d="M1146.02 1178.67 1001.76 1173.91 962.07 494.73C956.449 417.539 995.781 340.121 1046.37 338.98L1186.95 388.09ZM1146.02 1178.67" fill="#b93c3c" fill-rule="evenodd"/>
<path transform="matrix(.016936,0,0,-.016936,3.372,55.289)" d="M687.809 364.02 694.141 303.832C1100.98 166.68 1006.41 368.121 1420.86 417.461L1416.09 454.41C1099.3 476.801 933.441 355.551 687.809 364.02ZM687.809 364.02" fill="#b93c3c" fill-rule="evenodd"/>
<path transform="matrix(.016936,0,0,-.016936,3.372,55.289)" d="M648.949 809.77C613.012 917.379 513.59 896.25 532.191 803.121 636.41 477.27 666.762 296.91 680.66 271.68 761.602 134.961 818.711 170.781 823.75 289.961 824.609 326.332 716.988 616.172 648.949 809.77ZM648.949 809.77" fill="#b93c3c" fill-rule="evenodd"/>
<path transform="matrix(.016936,0,0,-.016936,3.372,55.289)" d="M328.789 592.23C266.09 602.031 271.801 524.102 303.91 507.582 752.77 309.059 1232.7 574.059 1638.67 550.27 1654.1 547.5 1678.52 538.52 1700.9 526.25 1772.54 488.359 1728.87 379.922 1693.55 357.66 1532.03 283.832 1569.69 356.949 1388.52 273.281 1371.45 262.301 1326.56 253.789 1309.88 260.621 1242.81 282.969 1187.62 321.41 1143.79 355.621L1059.84 313.281C1111.64 248.789 1188.12 218.238 1251.41 190.512 1302.03 166.41 1357.34 169.102 1394.14 167.969 1582.42 165.352 1758.55 237.699 1847.15 248.629 1873.09 252.582 1903.28 297.539 1915.04 318.441 1987.73 437.461 1957.7 457.699 1906.88 582.34 1878.01 629.102 1794.53 642.461 1750.66 648.398 1295.31 667.699 713.789 507.301 328.789 592.23ZM328.789 592.23" fill="#b93c3c" fill-rule="evenodd"/>
<path transform="matrix(.016936,0,0,-.016936,3.372,55.289)" d="M442.66 2230.55C323.32 2256.45 330.66 2125.23 435.621 2097.77 873.828 1955.55 1180.7 2220.12 1484.26 2213.91 1636.6 2205.08 1747.11 2086.45 1887.19 2104.18 2149.53 2158.79 2008.28 2334.88 1874.84 2356.95 1767.7 2375.39 1669.84 2413.4 1478.05 2385.23 1105.31 2313.52 737.34 2147.34 442.66 2230.55ZM442.66 2230.55" fill-rule="evenodd"/>
<path transform="matrix(.016936,0,0,-.016936,3.372,55.289)" d="M741.129 2648.32C692.852 2637.54 669.219 2529.96 744.059 2516.21 1001.41 2516.91 1295.62 2616.41 1587.23 2656.21 1637.03 2666.45 1645.35 2765 1648.67 2799.02 1659.73 2852.46 1623.05 2867.89 1579.38 2858.16 1287.93 2784.77 1032.58 2692.85 741.129 2648.32ZM741.129 2648.32" fill-rule="evenodd"/>
</g>
</g>
</svg>
