<svg xmlns="http://www.w3.org/2000/svg" xmlns:xlink="http://www.w3.org/1999/xlink" version="1.1" width="44.85pt" height="59.772pt" viewBox="0 0 44.85 59.772">
<defs>
<clipPath id="clip_0">
<path transform="matrix(.19754,0,0,-.19754,0,59.772)" d="M0 0H227.04422V302.58357H0Z"/>
</clipPath>
<clipPath id="clip_1">
<path transform="matrix(.16936,0,0,-.16936,3.372,55.289)" d="M0 0H225V300H0Z"/>
</clipPath>
</defs>
<g>
<g>
<g clip-path="url(#clip_0)">
<path transform="matrix(.19754,0,0,.19754,0,-.00035476686)" d="M31 1H196.043C212.664 1 226.043 14.379 226.043 31V271.582C226.043 288.203 212.664 301.582 196.043 301.582H31C14.379 301.582 1 288.203 1 271.582V31C1 14.379 14.379 1 31 1ZM31 1" fill="#f5f0eb"/>
<path transform="matrix(.19754,0,0,.19754,0,-.00035476686)" stroke-width="2" stroke-linecap="butt" stroke-linejoin="round" fill="none" stroke="#000000" d="M31 1H196.043C212.664 1 226.043 14.379 226.043 31V271.582C226.043 288.203 212.664 301.582 196.043 301.582H31C14.379 301.582 1 288.203 1 271.582V31C1 14.379 14.379 1 31 1ZM31 1"/>
</g>
</g>
<g clip-path="url(#clip_1)">
<path transform="matrix(.016936,0,0,-.016936,3.372,55.289)" d="M1742.89 2260.16C1742.89 1918.95 1466.25 1642.34 1125.04 1642.34 783.789 1642.34 507.191 1918.95 507.191 2260.16 507.191 2601.41 783.789 2878.01 1125.04 2878.01 1466.25 2878.01 1742.89 2601.41 1742.89 2260.16ZM1742.89 2260.16" fill="#ffffff"/>
<path transform="matrix(.016936,0,0,-.016936,3.372,55.289)" stroke-width="98.8919" stroke-linecap="butt" stroke-linejoin="round" fill="none" stroke="#000000" d="M1742.89 2260.16C1742.89 1918.95 1466.25 1642.34 1125.04 1642.34 783.789 1642.34 507.191 1918.95 507.191 2260.16 507.191 2601.41 783.789 2878.01 1125.04 2878.01 1466.25 2878.01 1742.89 2601.41 1742.89 2260.16ZM1742.89 2260.16"/>
<path transform="matrix(.016936,0,0,-.016936,3.372,55.289)" d="M1629.41 2258.05C1629.41 1979.49 1403.59 1753.67 1125.04 1753.67 846.48 1753.67 620.66 1979.49 620.66 2258.05 620.66 2536.6 846.48 2762.42 1125.04 2762.42 1403.59 2762.42 1629.41 2536.6 1629.41 2258.05ZM1629.41 2258.05" fill="#000037"/>
<path transform="matrix(.018614866,0,0,.015257135,3.372,55.289)" stroke-width="68.8299" stroke-linecap="round" stroke-linejoin="round" fill="none" stroke="#ffffff" d="M797.15-2435.62C760.758-2405.1 706.813-2408.22 674.187-2442.82 641.562-2477.38 641.562-2531.41 674.187-2565.97 706.813-2600.56 760.758-2603.69 797.15-2573.16"/>
<path transform="matrix(.006813505,-.01180136,.009672642,.0055844939,3.372,55.289)" stroke-width="94.0234" stroke-linecap="round" stroke-linejoin="round" fill="none" stroke="#ffffff" d="M2817.77-140.246C2768.02-98.4987 2694.32-102.819 2649.79-150.037 2605.23-197.29 2605.24-271.095 2649.75-318.329 2694.36-365.539 2768-369.809 2817.77-328.121"/>
<path transform="matrix(-.006813505,-.01180136,.009672642,-.0055844939,3.372,55.289)" stroke-width="94.0234" stroke-linecap="round" stroke-linejoin="round" fill="none" stroke="#ffffff" d="M1427.44 3274.18C1377.64 3315.91 1304 3311.62 1259.42 3264.36 1214.89 3217.14 1214.86 3143.38 1259.43 3096.11 1304 3048.86 1377.66 3044.59 1427.41 3086.34"/>
<path transform="matrix(-.018614866,-.00000000016936,.00000000016936,-.015257135,3.372,55.289)" stroke-width="68.8299" stroke-linecap="round" stroke-linejoin="round" fill="none" stroke="#ffffff" d="M-1238.16 2571.21C-1274.59 2601.74-1328.5 2598.62-1361.12 2564.02-1393.75 2529.45-1393.75 2475.43-1361.12 2440.87-1328.5 2406.26-1274.59 2403.15-1238.16 2433.67"/>
<path transform="matrix(-.006813505,.01180136,-.009672642,-.0055844939,3.372,55.289)" stroke-width="94.0234" stroke-linecap="round" stroke-linejoin="round" fill="none" stroke="#ffffff" d="M-3419.8 336.02C-3469.56 377.779-3543.22 373.506-3587.78 326.248-3632.33 279.032-3632.33 205.24-3587.8 157.997-3543.23 110.739-3469.53 106.428-3419.77 148.199"/>
<path transform="matrix(.006813505,.01180136,-.009672642,.0055844939,3.372,55.289)" stroke-width="94.0234" stroke-linecap="round" stroke-linejoin="round" fill="none" stroke="#ffffff" d="M-2029.43-3078.36C-2079.17-3036.66-2152.86-3040.96-2197.41-3088.15-2241.98-3135.41-2241.98-3209.21-2197.44-3256.41-2152.88-3303.69-2079.2-3308-2029.45-3266.24"/>
<path transform="matrix(.016936,0,0,-.016936,3.372,55.289)" stroke-width="70.5676" stroke-linecap="butt" stroke-linejoin="round" fill="none" stroke="#ffffff" d="M1228.67 2258.67C1228.67 2200.98 1181.88 2154.22 1124.18 2154.22 1066.48 2154.22 1019.73 2200.98 1019.73 2258.67 1019.73 2316.37 1066.48 2363.16 1124.18 2363.16 1181.88 2363.16 1228.67 2316.37 1228.67 2258.67ZM1228.67 2258.67"/>
<path transform="matrix(.016936,0,0,-.016936,3.372,55.289)" d="M1742.89 741.41C1742.89 400.199 1466.25 123.59 1125.04 123.59 783.789 123.59 507.191 400.199 507.191 741.41 507.191 1082.66 783.789 1359.26 1125.04 1359.26 1466.25 1359.26 1742.89 1082.66 1742.89 741.41ZM1742.89 741.41" fill="#ffffff"/>
<path transform="matrix(.016936,0,0,-.016936,3.372,55.289)" stroke-width="98.8919" stroke-linecap="butt" stroke-linejoin="round" fill="none" stroke="#000000" d="M1742.89 741.41C1742.89 400.199 1466.25 123.59 1125.04 123.59 783.789 123.59 507.191 400.199 507.191 741.41 507.191 1082.66 783.789 1359.26 1125.04 1359.26 1466.25 1359.26 1742.89 1082.66 1742.89 741.41ZM1742.89 741.41"/>
<path transform="matrix(.016936,0,0,-.016936,3.372,55.289)" d="M1629.41 739.301C1629.41 460.738 1403.59 234.922 1125.04 234.922 846.48 234.922 620.66 460.738 620.66 739.301 620.66 1017.85 846.48 1243.67 1125.04 1243.67 1403.59 1243.67 1629.41 1017.85 1629.41 739.301ZM1629.41 739.301" fill="#000037"/>
<path transform="matrix(.018614866,0,0,.015257135,3.372,55.289)" stroke-width="68.8299" stroke-linecap="round" stroke-linejoin="round" fill="none" stroke="#ffffff" d="M797.15-749.757C760.758-719.231 706.813-722.353 674.187-756.951 641.562-791.505 641.562-845.541 674.187-880.095 706.813-914.693 760.758-917.815 797.15-887.293"/>
<path transform="matrix(.006813505,-.01180136,.009672642,.0055844939,3.372,55.289)" stroke-width="94.0234" stroke-linecap="round" stroke-linejoin="round" fill="none" stroke="#ffffff" d="M1183.12 1011.23C1133.36 1052.97 1059.67 1048.66 1015.14 1001.44 970.565 954.185 970.568 880.377 1015.1 833.147 1059.69 785.931 1133.35 781.657 1183.12 823.329"/>
<path transform="matrix(-.006813505,-.01180136,.009672642,-.0055844939,3.372,55.289)" stroke-width="94.0234" stroke-linecap="round" stroke-linejoin="round" fill="none" stroke="#ffffff" d="M-207.224 2122.7C-257.013 2164.44-330.672 2160.15-375.23 2112.89-419.763 2065.66-419.789 1991.91-375.237 1944.66-330.658 1897.38-256.994 1893.12-207.238 1934.87"/>
<path transform="matrix(-.018614866,-.00000000016936,.00000000016936,-.015257135,3.372,55.289)" stroke-width="68.8299" stroke-linecap="round" stroke-linejoin="round" fill="none" stroke="#ffffff" d="M-1238.16 885.342C-1274.59 915.868-1328.5 912.746-1361.12 878.149-1393.75 843.586-1393.75 789.558-1361.12 754.995-1328.5 720.397-1274.59 717.275-1238.16 747.797"/>
<path transform="matrix(-.006813505,.01180136,-.009672642,-.0055844939,3.372,55.289)" stroke-width="94.0234" stroke-linecap="round" stroke-linejoin="round" fill="none" stroke="#ffffff" d="M-1785.15-815.454C-1834.91-773.692-1908.56-777.95-1953.13-825.229-1997.66-872.441-1997.66-946.233-1953.15-993.461-1908.57-1040.74-1834.88-1045.04-1785.12-1003.28"/>
<path transform="matrix(.006813505,.01180136,-.009672642,.0055844939,3.372,55.289)" stroke-width="94.0234" stroke-linecap="round" stroke-linejoin="round" fill="none" stroke="#ffffff" d="M-394.779-1926.89C-444.503-1885.19-518.214-1889.49-562.758-1936.67-607.333-1983.93-607.333-2057.74-562.786-2104.95-518.224-2152.21-444.537-2156.53-394.782-2114.77"/>
<path transform="matrix(.016936,0,0,-.016936,3.372,55.289)" stroke-width="70.5676" stroke-linecap="butt" stroke-linejoin="round" fill="none" stroke="#ffffff" d="M1228.67 739.922C1228.67 682.23 1181.88 635.469 1124.18 635.469 1066.48 635.469 1019.73 682.23 1019.73 739.922 1019.73 797.621 1066.48 844.41 1124.18 844.41 1181.88 844.41 1228.67 797.621 1228.67 739.922ZM1228.67 739.922"/>
</g>
</g>
</svg>
