<svg xmlns="http://www.w3.org/2000/svg" xmlns:xlink="http://www.w3.org/1999/xlink" version="1.1" width="44.85pt" height="59.772pt" viewBox="0 0 44.85 59.772">
<defs>
<clipPath id="clip_0">
<path transform="matrix(.19754,0,0,-.19754,0,59.772)" d="M0 0H227.04422V302.58357H0Z"/>
</clipPath>
<clipPath id="clip_1">
<path transform="matrix(.16936,0,0,-.16936,3.372,55.289)" d="M0 0H225V300H0Z"/>
</clipPath>
</defs>
<g>
<g>
<g clip-path="url(#clip_0)">
<path transform="matrix(.19754,0,0,.19754,0,-.00035476686)" d="M31 1H196.043C212.664 1 226.043 14.379 226.043 31V271.582C226.043 288.203 212.664 301.582 196.043 301.582H31C14.379 301.582 1 288.203 1 271.582V31C1 14.379 14.379 1 31 1ZM31 1" fill="#f5f0eb"/>
<path transform="matrix(.19754,0,0,.19754,0,-.00035476686)" stroke-width="2" stroke-linecap="butt" stroke-linejoin="round" fill="none" stroke="#000000" d="M31 1H196.043C212.664 1 226.043 14.379 226.043 31V271.582C226.043 288.203 212.664 301.582 196.043 301.582H31C14.379 301.582 1 288.203 1 271.582V31C1 14.379 14.379 1 31 1ZM31 1"/>
</g>
</g>
<g clip-path="url(#clip_1)">
<path transform="matrix(.016936,0,0,-.016936,3.372,55.289)" d="M1194.92 2796.91C1194.92 2721.05 1115.43 2659.53 1017.38 2659.53 919.34 2659.53 839.84 2721.05 839.84 2796.91 839.84 2872.81 919.34 2934.3 1017.38 2934.3 1115.43 2934.3 1194.92 2872.81 1194.92 2796.91ZM1194.92 2796.91" fill="#004900"/>
<path transform="matrix(.016936,0,0,-.016936,3.372,55.289)" d="M1403.28 2796.91C1403.28 2721.05 1323.79 2659.53 1225.74 2659.53 1127.7 2659.53 1048.2 2721.05 1048.2 2796.91 1048.2 2872.81 1127.7 2934.3 1225.74 2934.3 1323.79 2934.3 1403.28 2872.81 1403.28 2796.91ZM1403.28 2796.91" fill="#004900"/>
<path transform="matrix(.016936,0,0,-.016936,3.372,55.289)" d="M1186.17 1722.38C1186.17 1646.52 1106.68 1585 1008.63 1585 910.59 1585 831.09 1646.52 831.09 1722.38 831.09 1798.24 910.59 1859.77 1008.63 1859.77 1106.68 1859.77 1186.17 1798.24 1186.17 1722.38ZM1186.17 1722.38" fill="#004900"/>
<path transform="matrix(.016936,0,0,-.016936,3.372,55.289)" stroke-width="395.652" stroke-linecap="round" stroke-miterlimit="4" stroke-linejoin="miter" fill="none" stroke="#004900" d="M1121.91 1801.41V2770.2"/>
<path transform="matrix(.016936,0,0,-.016936,3.372,55.289)" d="M1414.96 1722.38C1414.96 1646.52 1335.47 1585 1237.42 1585 1139.38 1585 1059.88 1646.52 1059.88 1722.38 1059.88 1798.24 1139.38 1859.77 1237.42 1859.77 1335.47 1859.77 1414.96 1798.24 1414.96 1722.38ZM1414.96 1722.38" fill="#004900"/>
<path transform="matrix(.016936,0,0,-.016936,3.372,55.289)" d="M1439.84 2304.84C1439.84 2204.06 1334.26 2122.34 1203.98 2122.34 1073.71 2122.34 968.121 2204.06 968.121 2304.84 968.121 2405.62 1073.71 2487.34 1203.98 2487.34 1334.26 2487.34 1439.84 2405.62 1439.84 2304.84ZM1439.84 2304.84" fill="#004900"/>
<path transform="matrix(.016936,0,0,-.016936,3.372,55.289)" d="M1276.76 2304.84C1276.76 2204.06 1171.17 2122.34 1040.9 2122.34 910.621 2122.34 805.039 2204.06 805.039 2304.84 805.039 2405.62 910.621 2487.34 1040.9 2487.34 1171.17 2487.34 1276.76 2405.62 1276.76 2304.84ZM1276.76 2304.84" fill="#004900"/>
<path transform="matrix(.016936,0,0,-.016936,3.372,55.289)" stroke-width="90" stroke-linecap="round" stroke-miterlimit="4" stroke-linejoin="miter" fill="none" stroke="#ffffff" d="M1121.91 2758.83V2486.6"/>
<path transform="matrix(.016936,0,0,-.016936,3.372,55.289)" stroke-width="90" stroke-linecap="round" stroke-miterlimit="4" stroke-linejoin="miter" fill="none" stroke="#ffffff" d="M1121.91 2098.16V1761.99"/>
<path transform="matrix(.016936,0,0,-.016936,3.372,55.289)" d="M1186.6 2774.57C1186.6 2740.04 1157.62 2711.99 1121.91 2711.99 1086.17 2711.99 1057.23 2740.04 1057.23 2774.57 1057.23 2809.14 1086.17 2837.15 1121.91 2837.15 1157.62 2837.15 1186.6 2809.14 1186.6 2774.57ZM1186.6 2774.57" fill="#ffffff"/>
<path transform="matrix(.016936,0,0,-.016936,3.372,55.289)" stroke-width="75" stroke-linecap="round" stroke-linejoin="round" fill="none" stroke="#ffffff" d="M1054.61 2211.41C1085.04 2257.77 1166.52 2255.74 1192.15 2211.41"/>
<path transform="matrix(.016936,0,0,-.016936,3.372,55.289)" stroke-width="75" stroke-linecap="round" stroke-linejoin="round" fill="none" stroke="#ffffff" d="M1054.61 2342.97C1085.04 2389.3 1166.52 2387.3 1192.15 2342.97"/>
<path transform="matrix(.016936,0,0,-.016936,3.372,55.289)" d="M450.039 1233.67C450.039 1157.81 370.551 1096.29 272.5 1096.29 174.41 1096.29 94.9609 1157.81 94.9609 1233.67 94.9609 1309.57 174.41 1371.05 272.5 1371.05 370.551 1371.05 450.039 1309.57 450.039 1233.67ZM450.039 1233.67" fill="#004900"/>
<path transform="matrix(.016936,0,0,-.016936,3.372,55.289)" d="M658.398 1233.67C658.398 1157.81 578.91 1096.29 480.859 1096.29 382.809 1096.29 303.32 1157.81 303.32 1233.67 303.32 1309.57 382.809 1371.05 480.859 1371.05 578.91 1371.05 658.398 1309.57 658.398 1233.67ZM658.398 1233.67" fill="#004900"/>
<path transform="matrix(.016936,0,0,-.016936,3.372,55.289)" d="M441.289 159.141C441.289 83.2813 361.801 21.7617 263.75 21.7617 165.66 21.7617 86.1719 83.2813 86.1719 159.141 86.1719 235 165.66 296.52 263.75 296.52 361.801 296.52 441.289 235 441.289 159.141ZM441.289 159.141" fill="#004900"/>
<path transform="matrix(.016936,0,0,-.016936,3.372,55.289)" stroke-width="395.652" stroke-linecap="round" stroke-miterlimit="4" stroke-linejoin="miter" fill="none" stroke="#004900" d="M376.988 238.16V1206.95"/>
<path transform="matrix(.016936,0,0,-.016936,3.372,55.289)" d="M670.078 159.141C670.078 83.2813 590.59 21.7617 492.5 21.7617 394.449 21.7617 314.961 83.2813 314.961 159.141 314.961 235 394.449 296.52 492.5 296.52 590.59 296.52 670.078 235 670.078 159.141ZM670.078 159.141" fill="#004900"/>
<path transform="matrix(.016936,0,0,-.016936,3.372,55.289)" d="M694.961 741.602C694.961 640.82 589.34 559.102 459.102 559.102 328.828 559.102 223.238 640.82 223.238 741.602 223.238 842.379 328.828 924.102 459.102 924.102 589.34 924.102 694.961 842.379 694.961 741.602ZM694.961 741.602" fill="#004900"/>
<path transform="matrix(.016936,0,0,-.016936,3.372,55.289)" d="M531.84 741.602C531.84 640.82 426.25 559.102 295.98 559.102 165.738 559.102 60.1602 640.82 60.1602 741.602 60.1602 842.379 165.738 924.102 295.98 924.102 426.25 924.102 531.84 842.379 531.84 741.602ZM531.84 741.602" fill="#004900"/>
<path transform="matrix(.016936,0,0,-.016936,3.372,55.289)" stroke-width="90" stroke-linecap="round" stroke-miterlimit="4" stroke-linejoin="miter" fill="none" stroke="#ffffff" d="M376.988 1195.59V923.359"/>
<path transform="matrix(.016936,0,0,-.016936,3.372,55.289)" stroke-width="90" stroke-linecap="round" stroke-miterlimit="4" stroke-linejoin="miter" fill="none" stroke="#ffffff" d="M376.988 534.922V198.711"/>
<path transform="matrix(.016936,0,0,-.016936,3.372,55.289)" d="M441.68 1211.33C441.68 1176.8 412.73 1148.75 376.988 1148.75 341.289 1148.75 312.301 1176.8 312.301 1211.33 312.301 1245.9 341.289 1273.91 376.988 1273.91 412.73 1273.91 441.68 1245.9 441.68 1211.33ZM441.68 1211.33" fill="#ffffff"/>
<path transform="matrix(.016936,0,0,-.016936,3.372,55.289)" stroke-width="75" stroke-linecap="round" stroke-linejoin="round" fill="none" stroke="#ffffff" d="M309.691 648.16C340.121 694.488 421.641 692.5 447.23 648.16"/>
<path transform="matrix(.016936,0,0,-.016936,3.372,55.289)" stroke-width="75" stroke-linecap="round" stroke-linejoin="round" fill="none" stroke="#ffffff" d="M309.691 779.73C340.121 826.051 421.641 824.059 447.23 779.73"/>
<path transform="matrix(.016936,0,0,-.016936,3.372,55.289)" d="M1971.29 1233.67C1971.29 1157.81 1891.8 1096.29 1793.75 1096.29 1695.7 1096.29 1616.21 1157.81 1616.21 1233.67 1616.21 1309.57 1695.7 1371.05 1793.75 1371.05 1891.8 1371.05 1971.29 1309.57 1971.29 1233.67ZM1971.29 1233.67" fill="#004900"/>
<path transform="matrix(.016936,0,0,-.016936,3.372,55.289)" d="M2179.65 1233.67C2179.65 1157.81 2100.2 1096.29 2002.11 1096.29 1904.06 1096.29 1824.57 1157.81 1824.57 1233.67 1824.57 1309.57 1904.06 1371.05 2002.11 1371.05 2100.2 1371.05 2179.65 1309.57 2179.65 1233.67ZM2179.65 1233.67" fill="#004900"/>
<path transform="matrix(.016936,0,0,-.016936,3.372,55.289)" d="M1962.54 159.141C1962.54 83.2813 1883.05 21.7617 1785 21.7617 1686.95 21.7617 1607.46 83.2813 1607.46 159.141 1607.46 235 1686.95 296.52 1785 296.52 1883.05 296.52 1962.54 235 1962.54 159.141ZM1962.54 159.141" fill="#004900"/>
<path transform="matrix(.016936,0,0,-.016936,3.372,55.289)" stroke-width="395.652" stroke-linecap="round" stroke-miterlimit="4" stroke-linejoin="miter" fill="none" stroke="#004900" d="M1898.28 238.16V1206.95"/>
<path transform="matrix(.016936,0,0,-.016936,3.372,55.289)" d="M2191.33 159.141C2191.33 83.2813 2111.84 21.7617 2013.79 21.7617 1915.74 21.7617 1836.25 83.2813 1836.25 159.141 1836.25 235 1915.74 296.52 2013.79 296.52 2111.84 296.52 2191.33 235 2191.33 159.141ZM2191.33 159.141" fill="#004900"/>
<path transform="matrix(.016936,0,0,-.016936,3.372,55.289)" d="M2216.21 741.602C2216.21 640.82 2110.62 559.102 1980.35 559.102 1850.12 559.102 1744.49 640.82 1744.49 741.602 1744.49 842.379 1850.12 924.102 1980.35 924.102 2110.62 924.102 2216.21 842.379 2216.21 741.602ZM2216.21 741.602" fill="#004900"/>
<path transform="matrix(.016936,0,0,-.016936,3.372,55.289)" d="M2053.12 741.602C2053.12 640.82 1947.54 559.102 1817.27 559.102 1687.03 559.102 1581.41 640.82 1581.41 741.602 1581.41 842.379 1687.03 924.102 1817.27 924.102 1947.54 924.102 2053.12 842.379 2053.12 741.602ZM2053.12 741.602" fill="#004900"/>
<path transform="matrix(.016936,0,0,-.016936,3.372,55.289)" stroke-width="90" stroke-linecap="round" stroke-miterlimit="4" stroke-linejoin="miter" fill="none" stroke="#ffffff" d="M1898.28 1195.59V923.359"/>
<path transform="matrix(.016936,0,0,-.016936,3.372,55.289)" stroke-width="90" stroke-linecap="round" stroke-miterlimit="4" stroke-linejoin="miter" fill="none" stroke="#ffffff" d="M1898.28 534.922V198.711"/>
<path transform="matrix(.016936,0,0,-.016936,3.372,55.289)" d="M1962.97 1211.33C1962.97 1176.8 1934.02 1148.75 1898.28 1148.75 1862.58 1148.75 1833.59 1176.8 1833.59 1211.33 1833.59 1245.9 1862.58 1273.91 1898.28 1273.91 1934.02 1273.91 1962.97 1245.9 1962.97 1211.33ZM1962.97 1211.33" fill="#ffffff"/>
<path transform="matrix(.016936,0,0,-.016936,3.372,55.289)" stroke-width="75" stroke-linecap="round" stroke-linejoin="round" fill="none" stroke="#ffffff" d="M1830.98 648.16C1861.41 694.488 1942.93 692.5 1968.52 648.16"/>
<path transform="matrix(.016936,0,0,-.016936,3.372,55.289)" stroke-width="75" stroke-linecap="round" stroke-linejoin="round" fill="none" stroke="#ffffff" d="M1830.98 779.73C1861.41 826.051 1942.93 824.059 1968.52 779.73"/>
</g>
</g>
</svg>
