<svg xmlns="http://www.w3.org/2000/svg" xmlns:xlink="http://www.w3.org/1999/xlink" version="1.1" width="44.85pt" height="59.772pt" viewBox="0 0 44.85 59.772">
<defs>
<clipPath id="clip_0">
<path transform="matrix(.19754,0,0,-.19754,0,59.772)" d="M0 0H227.04422V302.58357H0Z"/>
</clipPath>
<clipPath id="clip_1">
<path transform="matrix(.16936,0,0,-.16936,3.372,55.289)" d="M0 0H225V300H0Z"/>
</clipPath>
</defs>
<g>
<g>
<g clip-path="url(#clip_0)">
<path transform="matrix(.19754,0,0,.19754,0,-.00035476686)" d="M31 1H196.043C212.664 1 226.043 14.379 226.043 31V271.582C226.043 288.203 212.664 301.582 196.043 301.582H31C14.379 301.582 1 288.203 1 271.582V31C1 14.379 14.379 1 31 1ZM31 1" fill="#f5f0eb"/>
<path transform="matrix(.19754,0,0,.19754,0,-.00035476686)" stroke-width="2" stroke-linecap="butt" stroke-linejoin="round" fill="none" stroke="#000000" d="M31 1H196.043C212.664 1 226.043 14.379 226.043 31V271.582C226.043 288.203 212.664 301.582 196.043 301.582H31C14.379 301.582 1 288.203 1 271.582V31C1 14.379 14.379 1 31 1ZM31 1"/>
</g>
</g>
<g clip-path="url(#clip_1)">
<path transform="matrix(.016936,0,0,-.016936,3.372,55.289)" d="M612.66 1233.67C612.66 1157.81 533.16 1096.29 435.121 1096.29 337.031 1096.29 257.578 1157.81 257.578 1233.67 257.578 1309.57 337.031 1371.05 435.121 1371.05 533.16 1371.05 612.66 1309.57 612.66 1233.67ZM612.66 1233.67" fill="#004900"/>
<path transform="matrix(.016936,0,0,-.016936,3.372,55.289)" d="M821.02 1233.67C821.02 1157.81 741.52 1096.29 643.48 1096.29 545.43 1096.29 465.941 1157.81 465.941 1233.67 465.941 1309.57 545.43 1371.05 643.48 1371.05 741.52 1371.05 821.02 1309.57 821.02 1233.67ZM821.02 1233.67" fill="#004900"/>
<path transform="matrix(.016936,0,0,-.016936,3.372,55.289)" d="M603.91 159.141C603.91 83.2813 524.41 21.7617 426.371 21.7617 328.281 21.7617 248.828 83.2813 248.828 159.141 248.828 235 328.281 296.52 426.371 296.52 524.41 296.52 603.91 235 603.91 159.141ZM603.91 159.141" fill="#004900"/>
<path transform="matrix(.016936,0,0,-.016936,3.372,55.289)" stroke-width="395.652" stroke-linecap="round" stroke-miterlimit="4" stroke-linejoin="miter" fill="none" stroke="#004900" d="M539.609 238.16V1206.95"/>
<path transform="matrix(.016936,0,0,-.016936,3.372,55.289)" d="M832.699 159.141C832.699 83.2813 753.199 21.7617 655.16 21.7617 557.07 21.7617 477.578 83.2813 477.578 159.141 477.578 235 557.07 296.52 655.16 296.52 753.199 296.52 832.699 235 832.699 159.141ZM832.699 159.141" fill="#004900"/>
<path transform="matrix(.016936,0,0,-.016936,3.372,55.289)" d="M857.578 741.602C857.578 640.82 751.949 559.102 621.719 559.102 491.449 559.102 385.859 640.82 385.859 741.602 385.859 842.379 491.449 924.102 621.719 924.102 751.949 924.102 857.578 842.379 857.578 741.602ZM857.578 741.602" fill="#004900"/>
<path transform="matrix(.016936,0,0,-.016936,3.372,55.289)" d="M694.449 741.602C694.449 640.82 588.871 559.102 458.629 559.102 328.359 559.102 222.77 640.82 222.77 741.602 222.77 842.379 328.359 924.102 458.629 924.102 588.871 924.102 694.449 842.379 694.449 741.602ZM694.449 741.602" fill="#004900"/>
<path transform="matrix(.016936,0,0,-.016936,3.372,55.289)" stroke-width="90" stroke-linecap="round" stroke-miterlimit="4" stroke-linejoin="miter" fill="none" stroke="#ffffff" d="M539.609 1195.59V923.359"/>
<path transform="matrix(.016936,0,0,-.016936,3.372,55.289)" stroke-width="90" stroke-linecap="round" stroke-miterlimit="4" stroke-linejoin="miter" fill="none" stroke="#ffffff" d="M539.609 534.922V198.711"/>
<path transform="matrix(.016936,0,0,-.016936,3.372,55.289)" d="M604.301 1211.33C604.301 1176.8 575.352 1148.75 539.609 1148.75 503.91 1148.75 474.961 1176.8 474.961 1211.33 474.961 1245.9 503.91 1273.91 539.609 1273.91 575.352 1273.91 604.301 1245.9 604.301 1211.33ZM604.301 1211.33" fill="#ffffff"/>
<path transform="matrix(.016936,0,0,-.016936,3.372,55.289)" stroke-width="75" stroke-linecap="round" stroke-linejoin="round" fill="none" stroke="#ffffff" d="M472.301 648.16C502.73 694.488 584.262 692.5 609.84 648.16"/>
<path transform="matrix(.016936,0,0,-.016936,3.372,55.289)" stroke-width="75" stroke-linecap="round" stroke-linejoin="round" fill="none" stroke="#ffffff" d="M472.301 779.73C502.73 826.051 584.262 824.059 609.84 779.73"/>
<path transform="matrix(.016936,0,0,-.016936,3.372,55.289)" d="M1777.23 1233.67C1777.23 1157.81 1697.73 1096.29 1599.65 1096.29 1501.6 1096.29 1422.11 1157.81 1422.11 1233.67 1422.11 1309.57 1501.6 1371.05 1599.65 1371.05 1697.73 1371.05 1777.23 1309.57 1777.23 1233.67ZM1777.23 1233.67" fill="#004900"/>
<path transform="matrix(.016936,0,0,-.016936,3.372,55.289)" d="M1985.59 1233.67C1985.59 1157.81 1906.09 1096.29 1808.05 1096.29 1709.96 1096.29 1630.51 1157.81 1630.51 1233.67 1630.51 1309.57 1709.96 1371.05 1808.05 1371.05 1906.09 1371.05 1985.59 1309.57 1985.59 1233.67ZM1985.59 1233.67" fill="#004900"/>
<path transform="matrix(.016936,0,0,-.016936,3.372,55.289)" d="M1768.44 159.141C1768.44 83.2813 1688.98 21.7617 1590.9 21.7617 1492.85 21.7617 1413.36 83.2813 1413.36 159.141 1413.36 235 1492.85 296.52 1590.9 296.52 1688.98 296.52 1768.44 235 1768.44 159.141ZM1768.44 159.141" fill="#004900"/>
<path transform="matrix(.016936,0,0,-.016936,3.372,55.289)" stroke-width="395.652" stroke-linecap="round" stroke-miterlimit="4" stroke-linejoin="miter" fill="none" stroke="#004900" d="M1704.18 238.16V1206.95"/>
<path transform="matrix(.016936,0,0,-.016936,3.372,55.289)" d="M1997.23 159.141C1997.23 83.2813 1917.77 21.7617 1819.69 21.7617 1721.64 21.7617 1642.15 83.2813 1642.15 159.141 1642.15 235 1721.64 296.52 1819.69 296.52 1917.77 296.52 1997.23 235 1997.23 159.141ZM1997.23 159.141" fill="#004900"/>
<path transform="matrix(.016936,0,0,-.016936,3.372,55.289)" d="M2022.11 741.602C2022.11 640.82 1916.52 559.102 1786.29 559.102 1656.02 559.102 1550.43 640.82 1550.43 741.602 1550.43 842.379 1656.02 924.102 1786.29 924.102 1916.52 924.102 2022.11 842.379 2022.11 741.602ZM2022.11 741.602" fill="#004900"/>
<path transform="matrix(.016936,0,0,-.016936,3.372,55.289)" d="M1859.02 741.602C1859.02 640.82 1753.44 559.102 1623.16 559.102 1492.93 559.102 1387.3 640.82 1387.3 741.602 1387.3 842.379 1492.93 924.102 1623.16 924.102 1753.44 924.102 1859.02 842.379 1859.02 741.602ZM1859.02 741.602" fill="#004900"/>
<path transform="matrix(.016936,0,0,-.016936,3.372,55.289)" stroke-width="90" stroke-linecap="round" stroke-miterlimit="4" stroke-linejoin="miter" fill="none" stroke="#ffffff" d="M1704.18 1195.59V923.359"/>
<path transform="matrix(.016936,0,0,-.016936,3.372,55.289)" stroke-width="90" stroke-linecap="round" stroke-miterlimit="4" stroke-linejoin="miter" fill="none" stroke="#ffffff" d="M1704.18 534.922V198.711"/>
<path transform="matrix(.016936,0,0,-.016936,3.372,55.289)" d="M1768.87 1211.33C1768.87 1176.8 1739.92 1148.75 1704.18 1148.75 1668.48 1148.75 1639.49 1176.8 1639.49 1211.33 1639.49 1245.9 1668.48 1273.91 1704.18 1273.91 1739.92 1273.91 1768.87 1245.9 1768.87 1211.33ZM1768.87 1211.33" fill="#ffffff"/>
<path transform="matrix(.016936,0,0,-.016936,3.372,55.289)" stroke-width="75" stroke-linecap="round" stroke-linejoin="round" fill="none" stroke="#ffffff" d="M1636.88 648.16C1667.3 694.488 1748.83 692.5 1774.41 648.16"/>
<path transform="matrix(.016936,0,0,-.016936,3.372,55.289)" stroke-width="75" stroke-linecap="round" stroke-linejoin="round" fill="none" stroke="#ffffff" d="M1636.88 779.73C1667.3 826.051 1748.83 824.059 1774.41 779.73"/>
<path transform="matrix(.016936,0,0,-.016936,3.372,55.289)" d="M612.66 2796.91C612.66 2721.05 533.16 2659.53 435.121 2659.53 337.031 2659.53 257.578 2721.05 257.578 2796.91 257.578 2872.81 337.031 2934.3 435.121 2934.3 533.16 2934.3 612.66 2872.81 612.66 2796.91ZM612.66 2796.91" fill="#004900"/>
<path transform="matrix(.016936,0,0,-.016936,3.372,55.289)" d="M821.02 2796.91C821.02 2721.05 741.52 2659.53 643.48 2659.53 545.43 2659.53 465.941 2721.05 465.941 2796.91 465.941 2872.81 545.43 2934.3 643.48 2934.3 741.52 2934.3 821.02 2872.81 821.02 2796.91ZM821.02 2796.91" fill="#004900"/>
<path transform="matrix(.016936,0,0,-.016936,3.372,55.289)" d="M603.91 1722.38C603.91 1646.52 524.41 1585 426.371 1585 328.281 1585 248.828 1646.52 248.828 1722.38 248.828 1798.24 328.281 1859.77 426.371 1859.77 524.41 1859.77 603.91 1798.24 603.91 1722.38ZM603.91 1722.38" fill="#004900"/>
<path transform="matrix(.016936,0,0,-.016936,3.372,55.289)" stroke-width="395.652" stroke-linecap="round" stroke-miterlimit="4" stroke-linejoin="miter" fill="none" stroke="#004900" d="M539.609 1801.41V2770.2"/>
<path transform="matrix(.016936,0,0,-.016936,3.372,55.289)" d="M832.699 1722.38C832.699 1646.52 753.199 1585 655.16 1585 557.07 1585 477.578 1646.52 477.578 1722.38 477.578 1798.24 557.07 1859.77 655.16 1859.77 753.199 1859.77 832.699 1798.24 832.699 1722.38ZM832.699 1722.38" fill="#004900"/>
<path transform="matrix(.016936,0,0,-.016936,3.372,55.289)" d="M857.578 2304.84C857.578 2204.06 751.949 2122.34 621.719 2122.34 491.449 2122.34 385.859 2204.06 385.859 2304.84 385.859 2405.62 491.449 2487.34 621.719 2487.34 751.949 2487.34 857.578 2405.62 857.578 2304.84ZM857.578 2304.84" fill="#004900"/>
<path transform="matrix(.016936,0,0,-.016936,3.372,55.289)" d="M694.449 2304.84C694.449 2204.06 588.871 2122.34 458.629 2122.34 328.359 2122.34 222.77 2204.06 222.77 2304.84 222.77 2405.62 328.359 2487.34 458.629 2487.34 588.871 2487.34 694.449 2405.62 694.449 2304.84ZM694.449 2304.84" fill="#004900"/>
<path transform="matrix(.016936,0,0,-.016936,3.372,55.289)" stroke-width="90" stroke-linecap="round" stroke-miterlimit="4" stroke-linejoin="miter" fill="none" stroke="#ffffff" d="M539.609 2758.83V2486.6"/>
<path transform="matrix(.016936,0,0,-.016936,3.372,55.289)" stroke-width="90" stroke-linecap="round" stroke-miterlimit="4" stroke-linejoin="miter" fill="none" stroke="#ffffff" d="M539.609 2098.16V1761.99"/>
<path transform="matrix(.016936,0,0,-.016936,3.372,55.289)" d="M604.301 2774.57C604.301 2740.04 575.352 2711.99 539.609 2711.99 503.91 2711.99 474.961 2740.04 474.961 2774.57 474.961 2809.14 503.91 2837.15 539.609 2837.15 575.352 2837.15 604.301 2809.14 604.301 2774.57ZM604.301 2774.57" fill="#ffffff"/>
<path transform="matrix(.016936,0,0,-.016936,3.372,55.289)" stroke-width="75" stroke-linecap="round" stroke-linejoin="round" fill="none" stroke="#ffffff" d="M472.301 2211.41C502.73 2257.77 584.262 2255.74 609.84 2211.41"/>
<path transform="matrix(.016936,0,0,-.016936,3.372,55.289)" stroke-width="75" stroke-linecap="round" stroke-linejoin="round" fill="none" stroke="#ffffff" d="M472.301 2342.97C502.73 2389.3 584.262 2387.3 609.84 2342.97"/>
<path transform="matrix(.016936,0,0,-.016936,3.372,55.289)" d="M1777.23 2796.91C1777.23 2721.05 1697.73 2659.53 1599.65 2659.53 1501.6 2659.53 1422.11 2721.05 1422.11 2796.91 1422.11 2872.81 1501.6 2934.3 1599.65 2934.3 1697.73 2934.3 1777.23 2872.81 1777.23 2796.91ZM1777.23 2796.91" fill="#004900"/>
<path transform="matrix(.016936,0,0,-.016936,3.372,55.289)" d="M1985.59 2796.91C1985.59 2721.05 1906.09 2659.53 1808.05 2659.53 1709.96 2659.53 1630.51 2721.05 1630.51 2796.91 1630.51 2872.81 1709.96 2934.3 1808.05 2934.3 1906.09 2934.3 1985.59 2872.81 1985.59 2796.91ZM1985.59 2796.91" fill="#004900"/>
<path transform="matrix(.016936,0,0,-.016936,3.372,55.289)" d="M1768.44 1722.38C1768.44 1646.52 1688.98 1585 1590.9 1585 1492.85 1585 1413.36 1646.52 1413.36 1722.38 1413.36 1798.24 1492.85 1859.77 1590.9 1859.77 1688.98 1859.77 1768.44 1798.24 1768.44 1722.38ZM1768.44 1722.38" fill="#004900"/>
<path transform="matrix(.016936,0,0,-.016936,3.372,55.289)" stroke-width="395.652" stroke-linecap="round" stroke-miterlimit="4" stroke-linejoin="miter" fill="none" stroke="#004900" d="M1704.18 1801.41V2770.2"/>
<path transform="matrix(.016936,0,0,-.016936,3.372,55.289)" d="M1997.23 1722.38C1997.23 1646.52 1917.77 1585 1819.69 1585 1721.64 1585 1642.15 1646.52 1642.15 1722.38 1642.15 1798.24 1721.64 1859.77 1819.69 1859.77 1917.77 1859.77 1997.23 1798.24 1997.23 1722.38ZM1997.23 1722.38" fill="#004900"/>
<path transform="matrix(.016936,0,0,-.016936,3.372,55.289)" d="M2022.11 2304.84C2022.11 2204.06 1916.52 2122.34 1786.29 2122.34 1656.02 2122.34 1550.43 2204.06 1550.43 2304.84 1550.43 2405.62 1656.02 2487.34 1786.29 2487.34 1916.52 2487.34 2022.11 2405.62 2022.11 2304.84ZM2022.11 2304.84" fill="#004900"/>
<path transform="matrix(.016936,0,0,-.016936,3.372,55.289)" d="M1859.02 2304.84C1859.02 2204.06 1753.44 2122.34 1623.16 2122.34 1492.93 2122.34 1387.3 2204.06 1387.3 2304.84 1387.3 2405.62 1492.93 2487.34 1623.16 2487.34 1753.44 2487.34 1859.02 2405.62 1859.02 2304.84ZM1859.02 2304.84" fill="#004900"/>
<path transform="matrix(.016936,0,0,-.016936,3.372,55.289)" stroke-width="90" stroke-linecap="round" stroke-miterlimit="4" stroke-linejoin="miter" fill="none" stroke="#ffffff" d="M1704.18 2758.83V2486.6"/>
<path transform="matrix(.016936,0,0,-.016936,3.372,55.289)" stroke-width="90" stroke-linecap="round" stroke-miterlimit="4" stroke-linejoin="miter" fill="none" stroke="#ffffff" d="M1704.18 2098.16V1761.99"/>
<path transform="matrix(.016936,0,0,-.016936,3.372,55.289)" d="M1768.87 2774.57C1768.87 2740.04 1739.92 2711.99 1704.18 2711.99 1668.48 2711.99 1639.49 2740.04 1639.49 2774.57 1639.49 2809.14 1668.48 2837.15 1704.18 2837.15 1739.92 2837.15 1768.87 2809.14 1768.87 2774.57ZM1768.87 2774.57" fill="#ffffff"/>
<path transform="matrix(.016936,0,0,-.016936,3.372,55.289)" stroke-width="75" stroke-linecap="round" stroke-linejoin="round" fill="none" stroke="#ffffff" d="M1636.88 2211.41C1667.3 2257.77 1748.83 2255.74 1774.41 2211.41"/>
<path transform="matrix(.016936,0,0,-.016936,3.372,55.289)" stroke-width="75" stroke-linecap="round" stroke-linejoin="round" fill="none" stroke="#ffffff" d="M1636.88 2342.97C1667.3 2389.3 1748.83 2387.3 1774.41 2342.97"/>
</g>
</g>
</svg>
