<svg xmlns="http://www.w3.org/2000/svg" xmlns:xlink="http://www.w3.org/1999/xlink" version="1.1" width="44.85pt" height="59.772pt" viewBox="0 0 44.85 59.772">
<defs>
<clipPath id="clip_0">
<path transform="matrix(.19754,0,0,-.19754,0,59.772)" d="M0 0H227.04422V302.58357H0Z"/>
</clipPath>
<clipPath id="clip_1">
<path transform="matrix(.16936,0,0,-.16936,3.372,55.289)" d="M0 0H225V300H0Z"/>
</clipPath>
</defs>
<g>
<g>
<g clip-path="url(#clip_0)">
<path transform="matrix(.19754,0,0,.19754,0,-.00035476686)" d="M31 1H196.043C212.664 1 226.043 14.379 226.043 31V271.582C226.043 288.203 212.664 301.582 196.043 301.582H31C14.379 301.582 1 288.203 1 271.582V31C1 14.379 14.379 1 31 1ZM31 1" fill="#f5f0eb"/>
<path transform="matrix(.19754,0,0,.19754,0,-.00035476686)" stroke-width="2" stroke-linecap="butt" stroke-linejoin="round" fill="none" stroke="#000000" d="M31 1H196.043C212.664 1 226.043 14.379 226.043 31V271.582C226.043 288.203 212.664 301.582 196.043 301.582H31C14.379 301.582 1 288.203 1 271.582V31C1 14.379 14.379 1 31 1ZM31 1"/>
</g>
</g>
<g clip-path="url(#clip_1)">
<path transform="matrix(.016936,0,0,-.016936,3.372,55.289)" d="M248.711 1796.99C205.199 1740.66 399.219 1590.23 541.41 1544.92 587.34 1527.77 729.84 1676.37 674.18 1710.35 521.129 1789.65 279.609 1838.79 248.711 1796.99ZM248.711 1796.99" fill="#142896" fill-rule="evenodd"/>
<path transform="matrix(.016936,0,0,-.016936,3.372,55.289)" d="M509.922 1770.23C334.57 1110.86 385.941 1180.86 83.8281 775.27 35.1211 651.801 195.27 545.621 273.672 592.809 382.191 665.469 504.73 749.301 581.211 843.398 720.039 1014.34 1357.62 1489.41 1788.91 1622.66 1875.74 1649.49 1956.68 1645.62 2035.98 1662.77 2095.55 1679.69 2035.7 1768.24 2002.97 1801.76 1892.66 1917.97 1698.4 1986.76 1634.77 1940.94 1606.88 1927.11 1648.32 1733.87 1614.49 1715.74 1287.23 1555.55 680.512 1142.11 404.77 930.43 394.41 925.59 414.18 967.66 420.98 981.289 481.559 1102.58 547.461 1442.93 580.59 1789.22 583.711 1867.03 521.52 1839.96 509.922 1770.23ZM509.922 1770.23" fill="#142896" fill-rule="evenodd"/>
<path transform="matrix(.016936,0,0,-.016936,3.372,55.289)" d="M840 2209.84C769.609 2217.3 731.172 2147.97 739.262 2080.16 746.09 2022.66 748.051 1949.02 808.32 1886.6 847.969 1837.46 818.52 1464.53 817.73 1149.14 817.699 1127.03 800.738 1122.34 801.09 1101.02 801.02 1045.47 830.16 905.391 866.289 904.219 900 905.898 948.75 957.66 951.25 1031.76 970.27 1382.89 1002.5 1844.65 1030.31 1903.71 1065.35 1978.09 1125.74 1958.09 1131.8 2029.1 1140.74 2128.52 997.461 2187.85 839.961 2209.84ZM840 2209.84" fill="#142896" fill-rule="evenodd"/>
<path transform="matrix(.016936,0,0,-.016936,3.372,55.289)" d="M1340.27 2560.12C1262.73 2560.12 1112.27 2347.03 1111.88 2302.19 1112.7 2244.65 1257.54 2191.95 1254.61 2106.21 1251.88 1616.99 1123.4 834.02 1221.72 706.051 1365.98 533.75 2056.45 692.969 2099.22 728.16 2167.3 783.98 2196.91 839.922 2172.89 896.41 2147.15 958.59 1634.22 818.051 1408.4 901.332 1313.59 936.129 1380.39 1607.93 1382.03 2002.54 1386.84 2092.34 1563.01 2194.06 1563.79 2233.44 1566.6 2309.88 1434.77 2550.9 1340.27 2560.12ZM1340.27 2560.12" fill="#142896" fill-rule="evenodd"/>
</g>
</g>
</svg>
