<svg xmlns="http://www.w3.org/2000/svg" xmlns:xlink="http://www.w3.org/1999/xlink" version="1.1" width="44.85pt" height="59.772pt" viewBox="0 0 44.85 59.772">
<defs>
<clipPath id="clip_0">
<path transform="matrix(.19754,0,0,-.19754,0,59.772)" d="M0 0H227.04422V302.58357H0Z"/>
</clipPath>
<clipPath id="clip_1">
<path transform="matrix(.16936,0,0,-.16936,3.372,55.289)" d="M0 0H225V300H0Z"/>
</clipPath>
</defs>
<g>
<g>
<g clip-path="url(#clip_0)">
<path transform="matrix(.19754,0,0,.19754,0,-.00035476686)" d="M31 1H196.043C212.664 1 226.043 14.379 226.043 31V271.582C226.043 288.203 212.664 301.582 196.043 301.582H31C14.379 301.582 1 288.203 1 271.582V31C1 14.379 14.379 1 31 1ZM31 1" fill="#f5f0eb"/>
<path transform="matrix(.19754,0,0,.19754,0,-.00035476686)" stroke-width="2" stroke-linecap="butt" stroke-linejoin="round" fill="none" stroke="#000000" d="M31 1H196.043C212.664 1 226.043 14.379 226.043 31V271.582C226.043 288.203 212.664 301.582 196.043 301.582H31C14.379 301.582 1 288.203 1 271.582V31C1 14.379 14.379 1 31 1ZM31 1"/>
</g>
</g>
<g clip-path="url(#clip_1)">
<path transform="matrix(.016936,0,0,-.016936,3.372,55.289)" d="M2239.06 2527.5C2239.06 2274.34 2033.83 2069.1 1780.66 2069.1 1527.54 2069.1 1322.3 2274.34 1322.3 2527.5 1322.3 2780.66 1527.54 2985.86 1780.66 2985.86 2033.83 2985.86 2239.06 2780.66 2239.06 2527.5ZM2239.06 2527.5"/>
<path transform="matrix(.016936,0,0,-.016936,3.372,55.289)" d="M929.141 2527.5C929.141 2274.34 723.91 2069.1 470.781 2069.1 217.621 2069.1 12.3789 2274.34 12.3789 2527.5 12.3789 2780.66 217.621 2985.86 470.781 2985.86 723.91 2985.86 929.141 2780.66 929.141 2527.5ZM929.141 2527.5"/>
<path transform="matrix(.016936,0,0,-.016936,3.372,55.289)" d="M1584.1 2527.5C1584.1 2274.34 1378.87 2069.1 1125.7 2069.1 872.578 2069.1 667.34 2274.34 667.34 2527.5 667.34 2780.66 872.578 2985.86 1125.7 2985.86 1378.87 2985.86 1584.1 2780.66 1584.1 2527.5ZM1584.1 2527.5"/>
<path transform="matrix(.016936,0,0,-.016936,3.372,55.289)" d="M1471.45 2527.5C1471.45 2336.56 1316.64 2181.8 1125.7 2181.8 934.801 2181.8 780 2336.56 780 2527.5 780 2718.44 934.801 2873.2 1125.7 2873.2 1316.64 2873.2 1471.45 2718.44 1471.45 2527.5ZM1471.45 2527.5" fill="#ffffff"/>
<path transform="matrix(.016936,0,0,-.016936,3.372,55.289)" d="M1423.44 2527.5C1423.44 2363.09 1290.12 2229.8 1125.7 2229.8 961.289 2229.8 828.012 2363.09 828.012 2527.5 828.012 2691.91 961.289 2825.2 1125.7 2825.2 1290.12 2825.2 1423.44 2691.91 1423.44 2527.5ZM1423.44 2527.5" fill="#000037"/>
<path transform="matrix(.016936,0,0,-.016936,3.372,55.289)" stroke-width="50.6284" stroke-linecap="round" stroke-dasharray="101.257,101.257" stroke-linejoin="round" fill="none" stroke="#ffffff" d="M1287.34 2528.59C1286.72 2616.68 1215.71 2688.04 1127.66 2689.11 1039.61 2690.16 966.91 2620.46 964.219 2532.46 961.484 2444.41 1029.77 2370.43 1117.73 2366.09 1205.71 2361.72 1280.94 2428.59 1286.95 2516.45"/>
<path transform="matrix(.016936,0,0,-.016936,3.372,55.289)" d="M1185.98 2527.5C1185.98 2494.22 1158.98 2467.27 1125.7 2467.27 1092.46 2467.27 1065.47 2494.22 1065.47 2527.5 1065.47 2560.78 1092.46 2587.73 1125.7 2587.73 1158.98 2587.73 1185.98 2560.78 1185.98 2527.5ZM1185.98 2527.5" fill="#ffffff"/>
<path transform="matrix(.016936,0,0,-.016936,3.372,55.289)" d="M1153.24 2527.5C1153.24 2512.3 1140.9 2500 1125.7 2500 1110.55 2500 1098.2 2512.3 1098.2 2527.5 1098.2 2542.7 1110.55 2555 1125.7 2555 1140.9 2555 1153.24 2542.7 1153.24 2527.5ZM1153.24 2527.5" fill="#000037"/>
<path transform="matrix(.016936,0,0,-.016936,3.372,55.289)" d="M816.48 2527.5C816.48 2336.56 661.68 2181.8 470.781 2181.8 279.84 2181.8 125.039 2336.56 125.039 2527.5 125.039 2718.44 279.84 2873.2 470.781 2873.2 661.68 2873.2 816.48 2718.44 816.48 2527.5ZM816.48 2527.5" fill="#ffffff"/>
<path transform="matrix(.016936,0,0,-.016936,3.372,55.289)" d="M768.48 2527.5C768.48 2363.09 635.199 2229.8 470.781 2229.8 306.371 2229.8 173.09 2363.09 173.09 2527.5 173.09 2691.91 306.371 2825.2 470.781 2825.2 635.199 2825.2 768.48 2691.91 768.48 2527.5ZM768.48 2527.5" fill="#000037"/>
<path transform="matrix(.016936,0,0,-.016936,3.372,55.289)" stroke-width="50.6284" stroke-linecap="round" stroke-dasharray="101.257,101.257" stroke-linejoin="round" fill="none" stroke="#ffffff" d="M632.379 2528.59C631.762 2616.68 560.777 2688.05 472.695 2689.1 384.652 2690.16 311.949 2620.47 309.258 2532.46 306.523 2444.41 374.805 2370.43 462.77 2366.09 550.746 2361.71 625.977 2428.6 631.992 2516.44"/>
<path transform="matrix(.016936,0,0,-.016936,3.372,55.289)" d="M531.02 2527.5C531.02 2494.22 504.02 2467.27 470.781 2467.27 437.5 2467.27 410.512 2494.22 410.512 2527.5 410.512 2560.78 437.5 2587.73 470.781 2587.73 504.02 2587.73 531.02 2560.78 531.02 2527.5ZM531.02 2527.5" fill="#ffffff"/>
<path transform="matrix(.016936,0,0,-.016936,3.372,55.289)" d="M498.281 2527.5C498.281 2512.3 485.941 2500 470.781 2500 455.59 2500 443.238 2512.3 443.238 2527.5 443.238 2542.7 455.59 2555 470.781 2555 485.941 2555 498.281 2542.7 498.281 2527.5ZM498.281 2527.5" fill="#000037"/>
<path transform="matrix(.016936,0,0,-.016936,3.372,55.289)" d="M2126.41 2527.5C2126.41 2336.56 1971.6 2181.8 1780.66 2181.8 1589.77 2181.8 1434.96 2336.56 1434.96 2527.5 1434.96 2718.44 1589.77 2873.2 1780.66 2873.2 1971.6 2873.2 2126.41 2718.44 2126.41 2527.5ZM2126.41 2527.5" fill="#ffffff"/>
<path transform="matrix(.016936,0,0,-.016936,3.372,55.289)" d="M2078.36 2527.5C2078.36 2363.09 1945.08 2229.8 1780.66 2229.8 1616.25 2229.8 1482.97 2363.09 1482.97 2527.5 1482.97 2691.91 1616.25 2825.2 1780.66 2825.2 1945.08 2825.2 2078.36 2691.91 2078.36 2527.5ZM2078.36 2527.5" fill="#000037"/>
<path transform="matrix(.016936,0,0,-.016936,3.372,55.289)" stroke-width="50.6284" stroke-linecap="round" stroke-dasharray="101.257,101.257" stroke-linejoin="round" fill="none" stroke="#ffffff" d="M1942.3 2528.59C1941.68 2616.68 1870.67 2688.05 1782.62 2689.1 1694.57 2690.15 1621.87 2620.47 1619.14 2532.46 1616.45 2444.41 1684.73 2370.43 1772.69 2366.09 1860.67 2361.72 1935.9 2428.59 1941.91 2516.45"/>
<path transform="matrix(.016936,0,0,-.016936,3.372,55.289)" d="M1840.9 2527.5C1840.9 2494.22 1813.95 2467.27 1780.66 2467.27 1747.42 2467.27 1720.43 2494.22 1720.43 2527.5 1720.43 2560.78 1747.42 2587.73 1780.66 2587.73 1813.95 2587.73 1840.9 2560.78 1840.9 2527.5ZM1840.9 2527.5" fill="#ffffff"/>
<path transform="matrix(.016936,0,0,-.016936,3.372,55.289)" d="M1808.2 2527.5C1808.2 2512.3 1795.86 2500 1780.66 2500 1765.47 2500 1753.16 2512.3 1753.16 2527.5 1753.16 2542.7 1765.47 2555 1780.66 2555 1795.86 2555 1808.2 2542.7 1808.2 2527.5ZM1808.2 2527.5" fill="#000037"/>
<path transform="matrix(.016936,0,0,-.016936,3.372,55.289)" d="M2239.06 472.5C2239.06 219.34 2033.83 14.1016 1780.66 14.1016 1527.54 14.1016 1322.3 219.34 1322.3 472.5 1322.3 725.66 1527.54 930.859 1780.66 930.859 2033.83 930.859 2239.06 725.66 2239.06 472.5ZM2239.06 472.5"/>
<path transform="matrix(.016936,0,0,-.016936,3.372,55.289)" d="M929.141 472.5C929.141 219.34 723.91 14.1016 470.781 14.1016 217.621 14.1016 12.3789 219.34 12.3789 472.5 12.3789 725.66 217.621 930.859 470.781 930.859 723.91 930.859 929.141 725.66 929.141 472.5ZM929.141 472.5"/>
<path transform="matrix(.016936,0,0,-.016936,3.372,55.289)" d="M1584.1 472.5C1584.1 219.34 1378.87 14.1016 1125.7 14.1016 872.578 14.1016 667.34 219.34 667.34 472.5 667.34 725.66 872.578 930.859 1125.7 930.859 1378.87 930.859 1584.1 725.66 1584.1 472.5ZM1584.1 472.5"/>
<path transform="matrix(.016936,0,0,-.016936,3.372,55.289)" d="M1471.45 472.5C1471.45 281.559 1316.64 126.801 1125.7 126.801 934.801 126.801 780 281.559 780 472.5 780 663.441 934.801 818.199 1125.7 818.199 1316.64 818.199 1471.45 663.441 1471.45 472.5ZM1471.45 472.5" fill="#ffffff"/>
<path transform="matrix(.016936,0,0,-.016936,3.372,55.289)" d="M1423.44 472.5C1423.44 308.09 1290.12 174.801 1125.7 174.801 961.289 174.801 828.012 308.09 828.012 472.5 828.012 636.91 961.289 770.199 1125.7 770.199 1290.12 770.199 1423.44 636.91 1423.44 472.5ZM1423.44 472.5" fill="#000037"/>
<path transform="matrix(.016936,0,0,-.016936,3.372,55.289)" stroke-width="50.6284" stroke-linecap="round" stroke-dasharray="101.257,101.257" stroke-linejoin="round" fill="none" stroke="#ffffff" d="M1287.34 473.59C1286.71 561.68 1215.7 633.047 1127.66 634.098 1039.61 635.152 966.914 565.469 964.219 477.465 961.484 389.41 1029.77 315.43 1117.73 311.094 1205.71 306.723 1280.94 373.594 1286.95 461.449"/>
<path transform="matrix(.016936,0,0,-.016936,3.372,55.289)" d="M1185.98 472.5C1185.98 439.219 1158.98 412.27 1125.7 412.27 1092.46 412.27 1065.47 439.219 1065.47 472.5 1065.47 505.781 1092.46 532.73 1125.7 532.73 1158.98 532.73 1185.98 505.781 1185.98 472.5ZM1185.98 472.5" fill="#ffffff"/>
<path transform="matrix(.016936,0,0,-.016936,3.372,55.289)" d="M1153.24 472.5C1153.24 457.301 1140.9 445 1125.7 445 1110.55 445 1098.2 457.301 1098.2 472.5 1098.2 487.699 1110.55 500 1125.7 500 1140.9 500 1153.24 487.699 1153.24 472.5ZM1153.24 472.5" fill="#000037"/>
<path transform="matrix(.016936,0,0,-.016936,3.372,55.289)" d="M816.48 472.5C816.48 281.559 661.68 126.801 470.781 126.801 279.84 126.801 125.039 281.559 125.039 472.5 125.039 663.441 279.84 818.199 470.781 818.199 661.68 818.199 816.48 663.441 816.48 472.5ZM816.48 472.5" fill="#ffffff"/>
<path transform="matrix(.016936,0,0,-.016936,3.372,55.289)" d="M768.48 472.5C768.48 308.09 635.199 174.801 470.781 174.801 306.371 174.801 173.09 308.09 173.09 472.5 173.09 636.91 306.371 770.199 470.781 770.199 635.199 770.199 768.48 636.91 768.48 472.5ZM768.48 472.5" fill="#000037"/>
<path transform="matrix(.016936,0,0,-.016936,3.372,55.289)" stroke-width="50.6284" stroke-linecap="round" stroke-dasharray="101.257,101.257" stroke-linejoin="round" fill="none" stroke="#ffffff" d="M632.379 473.598C631.762 561.676 560.777 633.043 472.695 634.105 384.645 635.156 311.953 565.465 309.258 477.461 306.523 389.418 374.809 315.426 462.773 311.09 550.746 306.719 625.98 373.59 631.992 461.445"/>
<path transform="matrix(.016936,0,0,-.016936,3.372,55.289)" d="M531.02 472.5C531.02 439.219 504.02 412.27 470.781 412.27 437.5 412.27 410.512 439.219 410.512 472.5 410.512 505.781 437.5 532.73 470.781 532.73 504.02 532.73 531.02 505.781 531.02 472.5ZM531.02 472.5" fill="#ffffff"/>
<path transform="matrix(.016936,0,0,-.016936,3.372,55.289)" d="M498.281 472.5C498.281 457.301 485.941 445 470.781 445 455.59 445 443.238 457.301 443.238 472.5 443.238 487.699 455.59 500 470.781 500 485.941 500 498.281 487.699 498.281 472.5ZM498.281 472.5" fill="#000037"/>
<path transform="matrix(.016936,0,0,-.016936,3.372,55.289)" d="M2126.41 472.5C2126.41 281.559 1971.6 126.801 1780.66 126.801 1589.77 126.801 1434.96 281.559 1434.96 472.5 1434.96 663.441 1589.77 818.199 1780.66 818.199 1971.6 818.199 2126.41 663.441 2126.41 472.5ZM2126.41 472.5" fill="#ffffff"/>
<path transform="matrix(.016936,0,0,-.016936,3.372,55.289)" d="M2078.36 472.5C2078.36 308.09 1945.08 174.801 1780.66 174.801 1616.25 174.801 1482.97 308.09 1482.97 472.5 1482.97 636.91 1616.25 770.199 1780.66 770.199 1945.08 770.199 2078.36 636.91 2078.36 472.5ZM2078.36 472.5" fill="#000037"/>
<path transform="matrix(.016936,0,0,-.016936,3.372,55.289)" stroke-width="50.6284" stroke-linecap="round" stroke-dasharray="101.257,101.257" stroke-linejoin="round" fill="none" stroke="#ffffff" d="M1942.3 473.594C1941.68 561.684 1870.66 633.047 1782.62 634.102 1694.57 635.156 1621.88 565.473 1619.14 477.457 1616.45 389.414 1684.73 315.434 1772.7 311.098 1860.67 306.715 1935.9 373.594 1941.91 461.441"/>
<path transform="matrix(.016936,0,0,-.016936,3.372,55.289)" d="M1840.9 472.5C1840.9 439.219 1813.95 412.27 1780.66 412.27 1747.42 412.27 1720.43 439.219 1720.43 472.5 1720.43 505.781 1747.42 532.73 1780.66 532.73 1813.95 532.73 1840.9 505.781 1840.9 472.5ZM1840.9 472.5" fill="#ffffff"/>
<path transform="matrix(.016936,0,0,-.016936,3.372,55.289)" d="M1808.2 472.5C1808.2 457.301 1795.86 445 1780.66 445 1765.47 445 1753.16 457.301 1753.16 472.5 1753.16 487.699 1765.47 500 1780.66 500 1795.86 500 1808.2 487.699 1808.2 472.5ZM1808.2 472.5" fill="#000037"/>
<path transform="matrix(.016936,0,0,-.016936,3.372,55.289)" d="M931.09 1496.91C931.09 1243.75 725.859 1038.52 472.73 1038.52 219.57 1038.52 14.3398 1243.75 14.3398 1496.91 14.3398 1750.08 219.57 1955.27 472.73 1955.27 725.859 1955.27 931.09 1750.08 931.09 1496.91ZM931.09 1496.91"/>
<path transform="matrix(.016936,0,0,-.016936,3.372,55.289)" d="M2241.02 1496.91C2241.02 1243.75 2035.78 1038.52 1782.62 1038.52 1529.45 1038.52 1324.26 1243.75 1324.26 1496.91 1324.26 1750.08 1529.45 1955.27 1782.62 1955.27 2035.78 1955.27 2241.02 1750.08 2241.02 1496.91ZM2241.02 1496.91"/>
<path transform="matrix(.016936,0,0,-.016936,3.372,55.289)" d="M1583.4 1496.91C1583.4 1243.75 1378.16 1038.52 1125.04 1038.52 871.879 1038.52 666.641 1243.75 666.641 1496.91 666.641 1750.08 871.879 1955.27 1125.04 1955.27 1378.16 1955.27 1583.4 1750.08 1583.4 1496.91ZM1583.4 1496.91"/>
<path transform="matrix(.016936,0,0,-.016936,3.372,55.289)" d="M1470.74 1496.91C1470.74 1305.98 1315.94 1151.21 1125.04 1151.21 934.102 1151.21 779.301 1305.98 779.301 1496.91 779.301 1687.85 934.102 1842.62 1125.04 1842.62 1315.94 1842.62 1470.74 1687.85 1470.74 1496.91ZM1470.74 1496.91" fill="#ffffff"/>
<path transform="matrix(.016936,0,0,-.016936,3.372,55.289)" d="M1422.73 1496.91C1422.73 1332.5 1289.45 1199.22 1125.04 1199.22 960.621 1199.22 827.34 1332.5 827.34 1496.91 827.34 1661.33 960.621 1794.61 1125.04 1794.61 1289.45 1794.61 1422.73 1661.33 1422.73 1496.91ZM1422.73 1496.91" fill="#b93c3c"/>
<path transform="matrix(.016936,0,0,-.016936,3.372,55.289)" stroke-width="50.6284" stroke-linecap="round" stroke-dasharray="101.257,101.257" stroke-linejoin="round" fill="none" stroke="#ffffff" d="M1286.64 1498C1286.02 1586.09 1215.04 1657.46 1126.96 1658.51 1038.91 1659.57 966.215 1589.88 963.52 1501.88 960.785 1413.82 1029.06 1339.84 1117.04 1335.51 1205 1331.13 1280.23 1398.01 1286.25 1485.86"/>
<path transform="matrix(.016936,0,0,-.016936,3.372,55.289)" d="M1185.27 1496.91C1185.27 1463.63 1158.28 1436.68 1125.04 1436.68 1091.76 1436.68 1064.77 1463.63 1064.77 1496.91 1064.77 1530.16 1091.76 1557.15 1125.04 1557.15 1158.28 1557.15 1185.27 1530.16 1185.27 1496.91ZM1185.27 1496.91" fill="#ffffff"/>
<path transform="matrix(.016936,0,0,-.016936,3.372,55.289)" d="M1152.54 1496.91C1152.54 1481.72 1140.2 1469.41 1125.04 1469.41 1109.84 1469.41 1097.5 1481.72 1097.5 1496.91 1097.5 1512.11 1109.84 1524.41 1125.04 1524.41 1140.2 1524.41 1152.54 1512.11 1152.54 1496.91ZM1152.54 1496.91" fill="#b93c3c"/>
<path transform="matrix(.016936,0,0,-.016936,3.372,55.289)" d="M818.441 1496.91C818.441 1305.98 663.629 1151.21 472.73 1151.21 281.801 1151.21 126.988 1305.98 126.988 1496.91 126.988 1687.85 281.801 1842.62 472.73 1842.62 663.629 1842.62 818.441 1687.85 818.441 1496.91ZM818.441 1496.91" fill="#ffffff"/>
<path transform="matrix(.016936,0,0,-.016936,3.372,55.289)" d="M770.43 1496.91C770.43 1332.5 637.109 1199.22 472.73 1199.22 308.32 1199.22 175 1332.5 175 1496.91 175 1661.33 308.32 1794.61 472.73 1794.61 637.109 1794.61 770.43 1661.33 770.43 1496.91ZM770.43 1496.91" fill="#b93c3c"/>
<path transform="matrix(.016936,0,0,-.016936,3.372,55.289)" stroke-width="50.6284" stroke-linecap="round" stroke-dasharray="101.257,101.257" stroke-linejoin="round" fill="none" stroke="#ffffff" d="M634.34 1498.01C633.715 1586.09 562.699 1657.46 474.648 1658.52 386.605 1659.57 313.902 1589.89 311.207 1501.88 308.477 1413.83 376.758 1339.85 464.723 1335.5 552.695 1331.13 627.93 1398.01 633.945 1485.86"/>
<path transform="matrix(.016936,0,0,-.016936,3.372,55.289)" d="M532.969 1496.91C532.969 1463.63 505.98 1436.68 472.73 1436.68 439.449 1436.68 412.461 1463.63 412.461 1496.91 412.461 1530.16 439.449 1557.15 472.73 1557.15 505.98 1557.15 532.969 1530.16 532.969 1496.91ZM532.969 1496.91" fill="#ffffff"/>
<path transform="matrix(.016936,0,0,-.016936,3.372,55.289)" d="M500.23 1496.91C500.23 1481.72 487.891 1469.41 472.73 1469.41 457.539 1469.41 445.199 1481.72 445.199 1496.91 445.199 1512.11 457.539 1524.41 472.73 1524.41 487.891 1524.41 500.23 1512.11 500.23 1496.91ZM500.23 1496.91" fill="#b93c3c"/>
<path transform="matrix(.016936,0,0,-.016936,3.372,55.289)" d="M2128.32 1496.91C2128.32 1305.98 1973.55 1151.21 1782.62 1151.21 1591.72 1151.21 1436.91 1305.98 1436.91 1496.91 1436.91 1687.85 1591.72 1842.62 1782.62 1842.62 1973.55 1842.62 2128.32 1687.85 2128.32 1496.91ZM2128.32 1496.91" fill="#ffffff"/>
<path transform="matrix(.016936,0,0,-.016936,3.372,55.289)" d="M2080.31 1496.91C2080.31 1332.5 1947.03 1199.22 1782.62 1199.22 1618.2 1199.22 1484.92 1332.5 1484.92 1496.91 1484.92 1661.33 1618.2 1794.61 1782.62 1794.61 1947.03 1794.61 2080.31 1661.33 2080.31 1496.91ZM2080.31 1496.91" fill="#b93c3c"/>
<path transform="matrix(.016936,0,0,-.016936,3.372,55.289)" stroke-width="50.6284" stroke-linecap="round" stroke-dasharray="101.257,101.257" stroke-linejoin="round" fill="none" stroke="#ffffff" d="M1944.26 1498.01C1943.64 1586.1 1872.62 1657.46 1784.57 1658.52 1696.49 1659.57 1623.82 1589.88 1621.09 1501.88 1618.4 1413.83 1686.68 1339.84 1774.64 1335.51 1862.62 1331.14 1937.85 1398.01 1943.87 1485.86"/>
<path transform="matrix(.016936,0,0,-.016936,3.372,55.289)" d="M1842.85 1496.91C1842.85 1463.63 1815.9 1436.68 1782.62 1436.68 1749.38 1436.68 1722.38 1463.63 1722.38 1496.91 1722.38 1530.16 1749.38 1557.15 1782.62 1557.15 1815.9 1557.15 1842.85 1530.16 1842.85 1496.91ZM1842.85 1496.91" fill="#ffffff"/>
<path transform="matrix(.016936,0,0,-.016936,3.372,55.289)" d="M1810.16 1496.91C1810.16 1481.72 1797.81 1469.41 1782.62 1469.41 1767.42 1469.41 1755.12 1481.72 1755.12 1496.91 1755.12 1512.11 1767.42 1524.41 1782.62 1524.41 1797.81 1524.41 1810.16 1512.11 1810.16 1496.91ZM1810.16 1496.91" fill="#b93c3c"/>
</g>
</g>
</svg>
