<svg xmlns="http://www.w3.org/2000/svg" xmlns:xlink="http://www.w3.org/1999/xlink" version="1.1" width="44.85pt" height="59.772pt" viewBox="0 0 44.85 59.772">
<defs>
<clipPath id="clip_0">
<path transform="matrix(.19754,0,0,-.19754,0,59.772)" d="M0 0H227.04422V302.58357H0Z"/>
</clipPath>
<clipPath id="clip_1">
<path transform="matrix(.16936,0,0,-.16936,3.372,55.289)" d="M0 0H225V300H0Z"/>
</clipPath>
</defs>
<g>
<g>
<g clip-path="url(#clip_0)">
<path transform="matrix(.19754,0,0,.19754,0,-.00035476686)" d="M31 1H196.043C212.664 1 226.043 14.379 226.043 31V271.582C226.043 288.203 212.664 301.582 196.043 301.582H31C14.379 301.582 1 288.203 1 271.582V31C1 14.379 14.379 1 31 1ZM31 1" fill="#f5f0eb"/>
<path transform="matrix(.19754,0,0,.19754,0,-.00035476686)" stroke-width="2" stroke-linecap="butt" stroke-linejoin="round" fill="none" stroke="#000000" d="M31 1H196.043C212.664 1 226.043 14.379 226.043 31V271.582C226.043 288.203 212.664 301.582 196.043 301.582H31C14.379 301.582 1 288.203 1 271.582V31C1 14.379 14.379 1 31 1ZM31 1"/>
</g>
</g>
<g clip-path="url(#clip_1)">
<path transform="matrix(.016936,0,0,-.016936,3.372,55.289)" d="M1178.67 2805.35C1178.67 2741.52 1111.09 2689.8 1027.73 2689.8 944.379 2689.8 876.801 2741.52 876.801 2805.35 876.801 2869.14 944.379 2920.9 1027.73 2920.9 1111.09 2920.9 1178.67 2869.14 1178.67 2805.35ZM1178.67 2805.35" fill="#b93c3c"/>
<path transform="matrix(.016936,0,0,-.016936,3.372,55.289)" d="M1373.55 2805.35C1373.55 2741.52 1305.98 2689.8 1222.62 2689.8 1139.26 2689.8 1071.64 2741.52 1071.64 2805.35 1071.64 2869.14 1139.26 2920.9 1222.62 2920.9 1305.98 2920.9 1373.55 2869.14 1373.55 2805.35ZM1373.55 2805.35" fill="#b93c3c"/>
<path transform="matrix(.016936,0,0,-.016936,3.372,55.289)" d="M1170.51 2185.86C1170.51 2122.03 1102.93 2070.31 1019.53 2070.31 936.172 2070.31 868.59 2122.03 868.59 2185.86 868.59 2249.69 936.172 2301.41 1019.53 2301.41 1102.93 2301.41 1170.51 2249.69 1170.51 2185.86ZM1170.51 2185.86" fill="#b93c3c"/>
<path transform="matrix(.01918561,0,0,.014686375,3.372,55.289)" stroke-width="289.044" stroke-linecap="round" stroke-miterlimit="4" stroke-linejoin="miter" fill="none" stroke="#b93c3c" d="M993.539-2543.02V-3253.23"/>
<path transform="matrix(.016936,0,0,-.016936,3.372,55.289)" d="M1384.49 2185.86C1384.49 2122.03 1316.88 2070.31 1233.52 2070.31 1150.16 2070.31 1082.58 2122.03 1082.58 2185.86 1082.58 2249.69 1150.16 2301.41 1233.52 2301.41 1316.88 2301.41 1384.49 2249.69 1384.49 2185.86ZM1384.49 2185.86" fill="#b93c3c"/>
<path transform="matrix(.016936,0,0,-.016936,3.372,55.289)" d="M1386.09 2511.48C1386.09 2433.75 1303.79 2370.78 1202.27 2370.78 1100.74 2370.78 1018.44 2433.75 1018.44 2511.48 1018.44 2589.18 1100.74 2652.19 1202.27 2652.19 1303.79 2652.19 1386.09 2589.18 1386.09 2511.48ZM1386.09 2511.48" fill="#b93c3c"/>
<path transform="matrix(.016936,0,0,-.016936,3.372,55.289)" d="M1233.55 2511.48C1233.55 2433.75 1151.25 2370.78 1049.73 2370.78 948.199 2370.78 865.898 2433.75 865.898 2511.48 865.898 2589.18 948.199 2652.19 1049.73 2652.19 1151.25 2652.19 1233.55 2589.18 1233.55 2511.48ZM1233.55 2511.48" fill="#b93c3c"/>
<path transform="matrix(.01918561,0,0,.014686375,3.372,55.289)" stroke-width="83.2376" stroke-linecap="round" stroke-miterlimit="4" stroke-linejoin="miter" fill="none" stroke="#ffffff" d="M992.436-3265.87V-3040.61"/>
<path transform="matrix(.01918561,0,0,.014686375,3.372,55.289)" stroke-width="83.2376" stroke-linecap="round" stroke-miterlimit="4" stroke-linejoin="miter" fill="none" stroke="#ffffff" d="M992.436-2755.51V-2542.08"/>
<path transform="matrix(.01918561,0,0,.014686375,3.372,55.289)" stroke-width="83.2376" stroke-linecap="round" stroke-linejoin="round" fill="none" stroke="#ffffff" d="M987.429-2899.88H997.467"/>
<path transform="matrix(.016936,0,0,-.016936,3.372,55.289)" d="M393.672 803.012C393.672 739.18 326.09 687.461 242.73 687.461 159.34 687.461 91.7617 739.18 91.7617 803.012 91.7617 866.84 159.34 918.551 242.73 918.551 326.09 918.551 393.672 866.84 393.672 803.012ZM393.672 803.012" fill="#004900"/>
<path transform="matrix(.016936,0,0,-.016936,3.372,55.289)" d="M588.551 803.012C588.551 739.18 520.98 687.461 437.578 687.461 354.219 687.461 286.641 739.18 286.641 803.012 286.641 866.84 354.219 918.551 437.578 918.551 520.98 918.551 588.551 866.84 588.551 803.012ZM588.551 803.012" fill="#004900"/>
<path transform="matrix(.016936,0,0,-.016936,3.372,55.289)" d="M385.469 183.52C385.469 119.73 317.891 67.9688 234.531 67.9688 151.172 67.9688 83.5898 119.73 83.5898 183.52 83.5898 247.34 151.172 299.102 234.531 299.102 317.891 299.102 385.469 247.34 385.469 183.52ZM385.469 183.52" fill="#004900"/>
<path transform="matrix(.01918561,0,0,.014686375,3.372,55.289)" stroke-width="289.044" stroke-linecap="round" stroke-miterlimit="4" stroke-linejoin="miter" fill="none" stroke="#004900" d="M300.547-234.018V-944.168"/>
<path transform="matrix(.016936,0,0,-.016936,3.372,55.289)" d="M599.449 183.52C599.449 119.73 531.879 67.9688 448.52 67.9688 365.16 67.9688 297.539 119.73 297.539 183.52 297.539 247.34 365.16 299.102 448.52 299.102 531.879 299.102 599.449 247.34 599.449 183.52ZM599.449 183.52" fill="#004900"/>
<path transform="matrix(.016936,0,0,-.016936,3.372,55.289)" d="M601.051 509.141C601.051 431.449 518.75 368.441 417.23 368.441 315.699 368.441 233.441 431.449 233.441 509.141 233.441 586.879 315.699 649.879 417.23 649.879 518.75 649.879 601.051 586.879 601.051 509.141ZM601.051 509.141" fill="#004900"/>
<path transform="matrix(.016936,0,0,-.016936,3.372,55.289)" d="M448.52 509.141C448.52 431.449 366.25 368.441 264.73 368.441 163.199 368.441 80.8984 431.449 80.8984 509.141 80.8984 586.879 163.199 649.879 264.73 649.879 366.25 649.879 448.52 586.879 448.52 509.141ZM448.52 509.141" fill="#004900"/>
<path transform="matrix(.01918561,0,0,.014686375,3.372,55.289)" stroke-width="83.2376" stroke-linecap="round" stroke-miterlimit="4" stroke-linejoin="miter" fill="none" stroke="#ffffff" d="M299.443-956.817V-731.551"/>
<path transform="matrix(.01918561,0,0,.014686375,3.372,55.289)" stroke-width="83.2376" stroke-linecap="round" stroke-miterlimit="4" stroke-linejoin="miter" fill="none" stroke="#ffffff" d="M299.443-446.451V-233.023"/>
<path transform="matrix(.01918561,0,0,.014686375,3.372,55.289)" stroke-width="83.2376" stroke-linecap="round" stroke-linejoin="round" fill="none" stroke="#ffffff" d="M294.475-590.823H304.512"/>
<path transform="matrix(.016936,0,0,-.016936,3.372,55.289)" d="M1956.91 803.012C1956.91 739.18 1889.34 687.461 1805.98 687.461 1722.58 687.461 1655 739.18 1655 803.012 1655 866.84 1722.58 918.551 1805.98 918.551 1889.34 918.551 1956.91 866.84 1956.91 803.012ZM1956.91 803.012" fill="#004900"/>
<path transform="matrix(.016936,0,0,-.016936,3.372,55.289)" d="M2151.8 803.012C2151.8 739.18 2084.22 687.461 2000.82 687.461 1917.46 687.461 1849.88 739.18 1849.88 803.012 1849.88 866.84 1917.46 918.551 2000.82 918.551 2084.22 918.551 2151.8 866.84 2151.8 803.012ZM2151.8 803.012" fill="#004900"/>
<path transform="matrix(.016936,0,0,-.016936,3.372,55.289)" d="M1948.71 183.52C1948.71 119.73 1881.13 67.9688 1797.77 67.9688 1714.41 67.9688 1646.84 119.73 1646.84 183.52 1646.84 247.34 1714.41 299.102 1797.77 299.102 1881.13 299.102 1948.71 247.34 1948.71 183.52ZM1948.71 183.52" fill="#004900"/>
<path transform="matrix(.01918561,0,0,.014686375,3.372,55.289)" stroke-width="289.044" stroke-linecap="round" stroke-miterlimit="4" stroke-linejoin="miter" fill="none" stroke="#004900" d="M1680.49-234.018V-944.168"/>
<path transform="matrix(.016936,0,0,-.016936,3.372,55.289)" d="M2162.7 183.52C2162.7 119.73 2095.12 67.9688 2011.76 67.9688 1928.4 67.9688 1860.82 119.73 1860.82 183.52 1860.82 247.34 1928.4 299.102 2011.76 299.102 2095.12 299.102 2162.7 247.34 2162.7 183.52ZM2162.7 183.52" fill="#004900"/>
<path transform="matrix(.016936,0,0,-.016936,3.372,55.289)" d="M2164.3 509.141C2164.3 431.449 2081.99 368.441 1980.47 368.441 1878.98 368.441 1796.68 431.449 1796.68 509.141 1796.68 586.879 1878.98 649.879 1980.47 649.879 2081.99 649.879 2164.3 586.879 2164.3 509.141ZM2164.3 509.141" fill="#004900"/>
<path transform="matrix(.016936,0,0,-.016936,3.372,55.289)" d="M2011.76 509.141C2011.76 431.449 1929.49 368.441 1827.97 368.441 1726.45 368.441 1644.14 431.449 1644.14 509.141 1644.14 586.879 1726.45 649.879 1827.97 649.879 1929.49 649.879 2011.76 586.879 2011.76 509.141ZM2011.76 509.141" fill="#004900"/>
<path transform="matrix(.01918561,0,0,.014686375,3.372,55.289)" stroke-width="83.2376" stroke-linecap="round" stroke-miterlimit="4" stroke-linejoin="miter" fill="none" stroke="#ffffff" d="M1679.39-956.817V-731.551"/>
<path transform="matrix(.01918561,0,0,.014686375,3.372,55.289)" stroke-width="83.2376" stroke-linecap="round" stroke-miterlimit="4" stroke-linejoin="miter" fill="none" stroke="#ffffff" d="M1679.39-446.451V-233.023"/>
<path transform="matrix(.01918561,0,0,.014686375,3.372,55.289)" stroke-width="83.2376" stroke-linecap="round" stroke-linejoin="round" fill="none" stroke="#ffffff" d="M1674.42-590.823H1684.45"/>
<path transform="matrix(.016936,0,0,-.016936,3.372,55.289)" d="M393.672 1792.7C393.672 1728.87 326.09 1677.15 242.73 1677.15 159.34 1677.15 91.7617 1728.87 91.7617 1792.7 91.7617 1856.52 159.34 1908.24 242.73 1908.24 326.09 1908.24 393.672 1856.52 393.672 1792.7ZM393.672 1792.7" fill="#004900"/>
<path transform="matrix(.016936,0,0,-.016936,3.372,55.289)" d="M588.551 1792.7C588.551 1728.87 520.98 1677.15 437.578 1677.15 354.219 1677.15 286.641 1728.87 286.641 1792.7 286.641 1856.52 354.219 1908.24 437.578 1908.24 520.98 1908.24 588.551 1856.52 588.551 1792.7ZM588.551 1792.7" fill="#004900"/>
<path transform="matrix(.016936,0,0,-.016936,3.372,55.289)" d="M385.469 1173.2C385.469 1109.41 317.891 1057.66 234.531 1057.66 151.172 1057.66 83.5898 1109.41 83.5898 1173.2 83.5898 1237.03 151.172 1288.75 234.531 1288.75 317.891 1288.75 385.469 1237.03 385.469 1173.2ZM385.469 1173.2" fill="#004900"/>
<path transform="matrix(.01918561,0,0,.014686375,3.372,55.289)" stroke-width="289.044" stroke-linecap="round" stroke-miterlimit="4" stroke-linejoin="miter" fill="none" stroke="#004900" d="M300.547-1375.3V-2085.45"/>
<path transform="matrix(.016936,0,0,-.016936,3.372,55.289)" d="M599.449 1173.2C599.449 1109.41 531.879 1057.66 448.52 1057.66 365.16 1057.66 297.539 1109.41 297.539 1173.2 297.539 1237.03 365.16 1288.75 448.52 1288.75 531.879 1288.75 599.449 1237.03 599.449 1173.2ZM599.449 1173.2" fill="#004900"/>
<path transform="matrix(.016936,0,0,-.016936,3.372,55.289)" d="M601.051 1498.83C601.051 1421.13 518.75 1358.12 417.23 1358.12 315.699 1358.12 233.441 1421.13 233.441 1498.83 233.441 1576.56 315.699 1639.53 417.23 1639.53 518.75 1639.53 601.051 1576.56 601.051 1498.83ZM601.051 1498.83" fill="#004900"/>
<path transform="matrix(.016936,0,0,-.016936,3.372,55.289)" d="M448.52 1498.83C448.52 1421.13 366.25 1358.12 264.73 1358.12 163.199 1358.12 80.8984 1421.13 80.8984 1498.83 80.8984 1576.56 163.199 1639.53 264.73 1639.53 366.25 1639.53 448.52 1576.56 448.52 1498.83ZM448.52 1498.83" fill="#004900"/>
<path transform="matrix(.01918561,0,0,.014686375,3.372,55.289)" stroke-width="83.2376" stroke-linecap="round" stroke-miterlimit="4" stroke-linejoin="miter" fill="none" stroke="#ffffff" d="M299.443-2098.11V-1872.83"/>
<path transform="matrix(.01918561,0,0,.014686375,3.372,55.289)" stroke-width="83.2376" stroke-linecap="round" stroke-miterlimit="4" stroke-linejoin="miter" fill="none" stroke="#ffffff" d="M299.443-1587.74V-1374.31"/>
<path transform="matrix(.01918561,0,0,.014686375,3.372,55.289)" stroke-width="83.2376" stroke-linecap="round" stroke-linejoin="round" fill="none" stroke="#ffffff" d="M294.475-1732.11H304.512"/>
<path transform="matrix(.016936,0,0,-.016936,3.372,55.289)" d="M1956.91 1792.7C1956.91 1728.87 1889.34 1677.15 1805.98 1677.15 1722.58 1677.15 1655 1728.87 1655 1792.7 1655 1856.52 1722.58 1908.24 1805.98 1908.24 1889.34 1908.24 1956.91 1856.52 1956.91 1792.7ZM1956.91 1792.7" fill="#004900"/>
<path transform="matrix(.016936,0,0,-.016936,3.372,55.289)" d="M2151.8 1792.7C2151.8 1728.87 2084.22 1677.15 2000.82 1677.15 1917.46 1677.15 1849.88 1728.87 1849.88 1792.7 1849.88 1856.52 1917.46 1908.24 2000.82 1908.24 2084.22 1908.24 2151.8 1856.52 2151.8 1792.7ZM2151.8 1792.7" fill="#004900"/>
<path transform="matrix(.016936,0,0,-.016936,3.372,55.289)" d="M1948.71 1173.2C1948.71 1109.41 1881.13 1057.66 1797.77 1057.66 1714.41 1057.66 1646.84 1109.41 1646.84 1173.2 1646.84 1237.03 1714.41 1288.75 1797.77 1288.75 1881.13 1288.75 1948.71 1237.03 1948.71 1173.2ZM1948.71 1173.2" fill="#004900"/>
<path transform="matrix(.01918561,0,0,.014686375,3.372,55.289)" stroke-width="289.044" stroke-linecap="round" stroke-miterlimit="4" stroke-linejoin="miter" fill="none" stroke="#004900" d="M1680.49-1375.3V-2085.45"/>
<path transform="matrix(.016936,0,0,-.016936,3.372,55.289)" d="M2162.7 1173.2C2162.7 1109.41 2095.12 1057.66 2011.76 1057.66 1928.4 1057.66 1860.82 1109.41 1860.82 1173.2 1860.82 1237.03 1928.4 1288.75 2011.76 1288.75 2095.12 1288.75 2162.7 1237.03 2162.7 1173.2ZM2162.7 1173.2" fill="#004900"/>
<path transform="matrix(.016936,0,0,-.016936,3.372,55.289)" d="M2164.3 1498.83C2164.3 1421.13 2081.99 1358.12 1980.47 1358.12 1878.98 1358.12 1796.68 1421.13 1796.68 1498.83 1796.68 1576.56 1878.98 1639.53 1980.47 1639.53 2081.99 1639.53 2164.3 1576.56 2164.3 1498.83ZM2164.3 1498.83" fill="#004900"/>
<path transform="matrix(.016936,0,0,-.016936,3.372,55.289)" d="M2011.76 1498.83C2011.76 1421.13 1929.49 1358.12 1827.97 1358.12 1726.45 1358.12 1644.14 1421.13 1644.14 1498.83 1644.14 1576.56 1726.45 1639.53 1827.97 1639.53 1929.49 1639.53 2011.76 1576.56 2011.76 1498.83ZM2011.76 1498.83" fill="#004900"/>
<path transform="matrix(.01918561,0,0,.014686375,3.372,55.289)" stroke-width="83.2376" stroke-linecap="round" stroke-miterlimit="4" stroke-linejoin="miter" fill="none" stroke="#ffffff" d="M1679.39-2098.11V-1872.83"/>
<path transform="matrix(.01918561,0,0,.014686375,3.372,55.289)" stroke-width="83.2376" stroke-linecap="round" stroke-miterlimit="4" stroke-linejoin="miter" fill="none" stroke="#ffffff" d="M1679.39-1587.74V-1374.31"/>
<path transform="matrix(.01918561,0,0,.014686375,3.372,55.289)" stroke-width="83.2376" stroke-linecap="round" stroke-linejoin="round" fill="none" stroke="#ffffff" d="M1674.42-1732.11H1684.45"/>
<path transform="matrix(.016936,0,0,-.016936,3.372,55.289)" d="M1178.67 1792.7C1178.67 1728.87 1111.09 1677.15 1027.73 1677.15 944.379 1677.15 876.801 1728.87 876.801 1792.7 876.801 1856.52 944.379 1908.24 1027.73 1908.24 1111.09 1908.24 1178.67 1856.52 1178.67 1792.7ZM1178.67 1792.7" fill="#b93c3c"/>
<path transform="matrix(.016936,0,0,-.016936,3.372,55.289)" d="M1373.55 1792.7C1373.55 1728.87 1305.98 1677.15 1222.62 1677.15 1139.26 1677.15 1071.64 1728.87 1071.64 1792.7 1071.64 1856.52 1139.26 1908.24 1222.62 1908.24 1305.98 1908.24 1373.55 1856.52 1373.55 1792.7ZM1373.55 1792.7" fill="#b93c3c"/>
<path transform="matrix(.016936,0,0,-.016936,3.372,55.289)" d="M1170.51 1173.2C1170.51 1109.41 1102.93 1057.66 1019.53 1057.66 936.172 1057.66 868.59 1109.41 868.59 1173.2 868.59 1237.03 936.172 1288.75 1019.53 1288.75 1102.93 1288.75 1170.51 1237.03 1170.51 1173.2ZM1170.51 1173.2" fill="#b93c3c"/>
<path transform="matrix(.01918561,0,0,.014686375,3.372,55.289)" stroke-width="289.044" stroke-linecap="round" stroke-miterlimit="4" stroke-linejoin="miter" fill="none" stroke="#b93c3c" d="M993.539-1375.3V-2085.45"/>
<path transform="matrix(.016936,0,0,-.016936,3.372,55.289)" d="M1384.49 1173.2C1384.49 1109.41 1316.88 1057.66 1233.52 1057.66 1150.16 1057.66 1082.58 1109.41 1082.58 1173.2 1082.58 1237.03 1150.16 1288.75 1233.52 1288.75 1316.88 1288.75 1384.49 1237.03 1384.49 1173.2ZM1384.49 1173.2" fill="#b93c3c"/>
<path transform="matrix(.016936,0,0,-.016936,3.372,55.289)" d="M1386.09 1498.83C1386.09 1421.13 1303.79 1358.12 1202.27 1358.12 1100.74 1358.12 1018.44 1421.13 1018.44 1498.83 1018.44 1576.56 1100.74 1639.53 1202.27 1639.53 1303.79 1639.53 1386.09 1576.56 1386.09 1498.83ZM1386.09 1498.83" fill="#b93c3c"/>
<path transform="matrix(.016936,0,0,-.016936,3.372,55.289)" d="M1233.55 1498.83C1233.55 1421.13 1151.25 1358.12 1049.73 1358.12 948.199 1358.12 865.898 1421.13 865.898 1498.83 865.898 1576.56 948.199 1639.53 1049.73 1639.53 1151.25 1639.53 1233.55 1576.56 1233.55 1498.83ZM1233.55 1498.83" fill="#b93c3c"/>
<path transform="matrix(.01918561,0,0,.014686375,3.372,55.289)" stroke-width="83.2376" stroke-linecap="round" stroke-miterlimit="4" stroke-linejoin="miter" fill="none" stroke="#ffffff" d="M992.436-2098.11V-1872.83"/>
<path transform="matrix(.01918561,0,0,.014686375,3.372,55.289)" stroke-width="83.2376" stroke-linecap="round" stroke-miterlimit="4" stroke-linejoin="miter" fill="none" stroke="#ffffff" d="M992.436-1587.74V-1374.31"/>
<path transform="matrix(.01918561,0,0,.014686375,3.372,55.289)" stroke-width="83.2376" stroke-linecap="round" stroke-linejoin="round" fill="none" stroke="#ffffff" d="M987.429-1732.11H997.467"/>
<path transform="matrix(.016936,0,0,-.016936,3.372,55.289)" d="M1178.67 803.012C1178.67 739.18 1111.09 687.461 1027.73 687.461 944.379 687.461 876.801 739.18 876.801 803.012 876.801 866.84 944.379 918.551 1027.73 918.551 1111.09 918.551 1178.67 866.84 1178.67 803.012ZM1178.67 803.012" fill="#b93c3c"/>
<path transform="matrix(.016936,0,0,-.016936,3.372,55.289)" d="M1373.55 803.012C1373.55 739.18 1305.98 687.461 1222.62 687.461 1139.26 687.461 1071.64 739.18 1071.64 803.012 1071.64 866.84 1139.26 918.551 1222.62 918.551 1305.98 918.551 1373.55 866.84 1373.55 803.012ZM1373.55 803.012" fill="#b93c3c"/>
<path transform="matrix(.016936,0,0,-.016936,3.372,55.289)" d="M1170.51 183.52C1170.51 119.73 1102.93 67.9688 1019.53 67.9688 936.172 67.9688 868.59 119.73 868.59 183.52 868.59 247.34 936.172 299.102 1019.53 299.102 1102.93 299.102 1170.51 247.34 1170.51 183.52ZM1170.51 183.52" fill="#b93c3c"/>
<path transform="matrix(.01918561,0,0,.014686375,3.372,55.289)" stroke-width="289.044" stroke-linecap="round" stroke-miterlimit="4" stroke-linejoin="miter" fill="none" stroke="#b93c3c" d="M993.539-234.018V-944.168"/>
<path transform="matrix(.016936,0,0,-.016936,3.372,55.289)" d="M1384.49 183.52C1384.49 119.73 1316.88 67.9688 1233.52 67.9688 1150.16 67.9688 1082.58 119.73 1082.58 183.52 1082.58 247.34 1150.16 299.102 1233.52 299.102 1316.88 299.102 1384.49 247.34 1384.49 183.52ZM1384.49 183.52" fill="#b93c3c"/>
<path transform="matrix(.016936,0,0,-.016936,3.372,55.289)" d="M1386.09 509.141C1386.09 431.449 1303.79 368.441 1202.27 368.441 1100.74 368.441 1018.44 431.449 1018.44 509.141 1018.44 586.879 1100.74 649.879 1202.27 649.879 1303.79 649.879 1386.09 586.879 1386.09 509.141ZM1386.09 509.141" fill="#b93c3c"/>
<path transform="matrix(.016936,0,0,-.016936,3.372,55.289)" d="M1233.55 509.141C1233.55 431.449 1151.25 368.441 1049.73 368.441 948.199 368.441 865.898 431.449 865.898 509.141 865.898 586.879 948.199 649.879 1049.73 649.879 1151.25 649.879 1233.55 586.879 1233.55 509.141ZM1233.55 509.141" fill="#b93c3c"/>
<path transform="matrix(.01918561,0,0,.014686375,3.372,55.289)" stroke-width="83.2376" stroke-linecap="round" stroke-miterlimit="4" stroke-linejoin="miter" fill="none" stroke="#ffffff" d="M992.436-956.817V-731.551"/>
<path transform="matrix(.01918561,0,0,.014686375,3.372,55.289)" stroke-width="83.2376" stroke-linecap="round" stroke-miterlimit="4" stroke-linejoin="miter" fill="none" stroke="#ffffff" d="M992.436-446.451V-233.023"/>
<path transform="matrix(.01918561,0,0,.014686375,3.372,55.289)" stroke-width="83.2376" stroke-linecap="round" stroke-linejoin="round" fill="none" stroke="#ffffff" d="M987.429-590.823H997.467"/>
<path transform="matrix(.016936,0,0,-.016936,3.372,55.289)" d="M393.672 2805.35C393.672 2741.52 326.09 2689.8 242.73 2689.8 159.34 2689.8 91.7617 2741.52 91.7617 2805.35 91.7617 2869.14 159.34 2920.9 242.73 2920.9 326.09 2920.9 393.672 2869.14 393.672 2805.35ZM393.672 2805.35" fill="#004900"/>
<path transform="matrix(.016936,0,0,-.016936,3.372,55.289)" d="M588.551 2805.35C588.551 2741.52 520.98 2689.8 437.578 2689.8 354.219 2689.8 286.641 2741.52 286.641 2805.35 286.641 2869.14 354.219 2920.9 437.578 2920.9 520.98 2920.9 588.551 2869.14 588.551 2805.35ZM588.551 2805.35" fill="#004900"/>
<path transform="matrix(.016936,0,0,-.016936,3.372,55.289)" d="M385.469 2185.86C385.469 2122.03 317.891 2070.31 234.531 2070.31 151.172 2070.31 83.5898 2122.03 83.5898 2185.86 83.5898 2249.69 151.172 2301.41 234.531 2301.41 317.891 2301.41 385.469 2249.69 385.469 2185.86ZM385.469 2185.86" fill="#004900"/>
<path transform="matrix(.01918561,0,0,.014686375,3.372,55.289)" stroke-width="289.044" stroke-linecap="round" stroke-miterlimit="4" stroke-linejoin="miter" fill="none" stroke="#004900" d="M300.547-2543.02V-3253.23"/>
<path transform="matrix(.016936,0,0,-.016936,3.372,55.289)" d="M599.449 2185.86C599.449 2122.03 531.879 2070.31 448.52 2070.31 365.16 2070.31 297.539 2122.03 297.539 2185.86 297.539 2249.69 365.16 2301.41 448.52 2301.41 531.879 2301.41 599.449 2249.69 599.449 2185.86ZM599.449 2185.86" fill="#004900"/>
<path transform="matrix(.016936,0,0,-.016936,3.372,55.289)" d="M601.051 2511.48C601.051 2433.75 518.75 2370.78 417.23 2370.78 315.699 2370.78 233.441 2433.75 233.441 2511.48 233.441 2589.18 315.699 2652.19 417.23 2652.19 518.75 2652.19 601.051 2589.18 601.051 2511.48ZM601.051 2511.48" fill="#004900"/>
<path transform="matrix(.016936,0,0,-.016936,3.372,55.289)" d="M448.52 2511.48C448.52 2433.75 366.25 2370.78 264.73 2370.78 163.199 2370.78 80.8984 2433.75 80.8984 2511.48 80.8984 2589.18 163.199 2652.19 264.73 2652.19 366.25 2652.19 448.52 2589.18 448.52 2511.48ZM448.52 2511.48" fill="#004900"/>
<path transform="matrix(.01918561,0,0,.014686375,3.372,55.289)" stroke-width="83.2376" stroke-linecap="round" stroke-miterlimit="4" stroke-linejoin="miter" fill="none" stroke="#ffffff" d="M299.443-3265.87V-3040.61"/>
<path transform="matrix(.01918561,0,0,.014686375,3.372,55.289)" stroke-width="83.2376" stroke-linecap="round" stroke-miterlimit="4" stroke-linejoin="miter" fill="none" stroke="#ffffff" d="M299.443-2755.51V-2542.08"/>
<path transform="matrix(.01918561,0,0,.014686375,3.372,55.289)" stroke-width="83.2376" stroke-linecap="round" stroke-linejoin="round" fill="none" stroke="#ffffff" d="M294.475-2899.88H304.512"/>
<path transform="matrix(.016936,0,0,-.016936,3.372,55.289)" d="M1956.91 2805.35C1956.91 2741.52 1889.34 2689.8 1805.98 2689.8 1722.58 2689.8 1655 2741.52 1655 2805.35 1655 2869.14 1722.58 2920.9 1805.98 2920.9 1889.34 2920.9 1956.91 2869.14 1956.91 2805.35ZM1956.91 2805.35" fill="#004900"/>
<path transform="matrix(.016936,0,0,-.016936,3.372,55.289)" d="M2151.8 2805.35C2151.8 2741.52 2084.22 2689.8 2000.82 2689.8 1917.46 2689.8 1849.88 2741.52 1849.88 2805.35 1849.88 2869.14 1917.46 2920.9 2000.82 2920.9 2084.22 2920.9 2151.8 2869.14 2151.8 2805.35ZM2151.8 2805.35" fill="#004900"/>
<path transform="matrix(.016936,0,0,-.016936,3.372,55.289)" d="M1948.71 2185.86C1948.71 2122.03 1881.13 2070.31 1797.77 2070.31 1714.41 2070.31 1646.84 2122.03 1646.84 2185.86 1646.84 2249.69 1714.41 2301.41 1797.77 2301.41 1881.13 2301.41 1948.71 2249.69 1948.71 2185.86ZM1948.71 2185.86" fill="#004900"/>
<path transform="matrix(.01918561,0,0,.014686375,3.372,55.289)" stroke-width="289.044" stroke-linecap="round" stroke-miterlimit="4" stroke-linejoin="miter" fill="none" stroke="#004900" d="M1680.49-2543.02V-3253.23"/>
<path transform="matrix(.016936,0,0,-.016936,3.372,55.289)" d="M2162.7 2185.86C2162.7 2122.03 2095.12 2070.31 2011.76 2070.31 1928.4 2070.31 1860.82 2122.03 1860.82 2185.86 1860.82 2249.69 1928.4 2301.41 2011.76 2301.41 2095.12 2301.41 2162.7 2249.69 2162.7 2185.86ZM2162.7 2185.86" fill="#004900"/>
<path transform="matrix(.016936,0,0,-.016936,3.372,55.289)" d="M2164.3 2511.48C2164.3 2433.75 2081.99 2370.78 1980.47 2370.78 1878.98 2370.78 1796.68 2433.75 1796.68 2511.48 1796.68 2589.18 1878.98 2652.19 1980.47 2652.19 2081.99 2652.19 2164.3 2589.18 2164.3 2511.48ZM2164.3 2511.48" fill="#004900"/>
<path transform="matrix(.016936,0,0,-.016936,3.372,55.289)" d="M2011.76 2511.48C2011.76 2433.75 1929.49 2370.78 1827.97 2370.78 1726.45 2370.78 1644.14 2433.75 1644.14 2511.48 1644.14 2589.18 1726.45 2652.19 1827.97 2652.19 1929.49 2652.19 2011.76 2589.18 2011.76 2511.48ZM2011.76 2511.48" fill="#004900"/>
<path transform="matrix(.01918561,0,0,.014686375,3.372,55.289)" stroke-width="83.2376" stroke-linecap="round" stroke-miterlimit="4" stroke-linejoin="miter" fill="none" stroke="#ffffff" d="M1679.39-3265.87V-3040.61"/>
<path transform="matrix(.01918561,0,0,.014686375,3.372,55.289)" stroke-width="83.2376" stroke-linecap="round" stroke-miterlimit="4" stroke-linejoin="miter" fill="none" stroke="#ffffff" d="M1679.39-2755.51V-2542.08"/>
<path transform="matrix(.01918561,0,0,.014686375,3.372,55.289)" stroke-width="83.2376" stroke-linecap="round" stroke-linejoin="round" fill="none" stroke="#ffffff" d="M1674.42-2899.88H1684.45"/>
</g>
</g>
</svg>
